<svg width="4074" height="674" xmlns="http://www.w3.org/2000/svg" xmlns:xlink="http://www.w3.org/1999/xlink" xml:space="preserve" overflow="hidden"><defs><linearGradient x1="2179.5" y1="158.5" x2="2179.5" y2="827.5" gradientUnits="userSpaceOnUse" spreadMethod="reflect" id="fill0"><stop offset="0" stop-color="#9B9B9B"/><stop offset="0.5" stop-color="#8E8E8E"/><stop offset="1" stop-color="#797979"/></linearGradient></defs><g transform="translate(-153 -156)"><rect x="155.5" y="158.5" width="4048" height="669" stroke="#000000" stroke-width="4.58333" stroke-miterlimit="8" fill="url(#fill0)"/><rect x="177.5" y="185.5" width="1813" height="122" stroke="#156082" stroke-width="6.875" stroke-miterlimit="8" fill="#FFFFFF"/><text font-family="Arial,Arial_MSFontService,sans-serif" font-weight="400" font-size="64" transform="matrix(1 0 0 1 874.018 269)">render frame n</text><rect x="2008.5" y="185.5" width="39.9998" height="122" stroke="#196B24" stroke-width="6.875" stroke-miterlimit="8" fill="#FFFFFF"/><text font-family="Arial,Arial_MSFontService,sans-serif" font-weight="400" font-size="64" transform="matrix(1 0 0 1 1807.81 380)">present frame n</text><rect x="3903.5" y="185.5" width="38.9998" height="122" stroke="#196B24" stroke-width="6.875" stroke-miterlimit="8" fill="#FFFFFF"/><text font-family="Arial,Arial_MSFontService,sans-serif" font-weight="400" font-size="64" transform="matrix(1 0 0 1 3667.79 385)">present frame n+1</text><rect x="2066.5" y="185.5" width="1812" height="122" stroke="#156082" stroke-width="6.875" stroke-miterlimit="8" fill="#FFFFFF"/><text font-family="Arial,Arial_MSFontService,sans-serif" font-weight="400" font-size="64" transform="matrix(1 0 0 1 2726.24 269)">render frame n+1</text><path d="M2048.5 499.5C2048.5 530.152 2044.36 555 2039.25 555L1122.25 555C1117.14 555 1113 579.848 1113 610.5 1113 579.848 1108.86 555 1103.75 555L186.748 555C181.641 555 177.5 530.152 177.5 499.5" stroke="#000000" stroke-width="6.875" stroke-miterlimit="8" fill="none" fill-rule="evenodd"/><text font-family="Arial,Arial_MSFontService,sans-serif" font-weight="400" font-size="64" transform="matrix(1 0 0 1 779.587 689)">Frame time </text><path d="M1149.91 644.047C1151.95 644.047 1153.71 644.214 1155.19 644.547L1153.97 649.86 1151.22 649.86C1150.93 648.672 1150.55 647.818 1150.08 647.297 1149.61 646.776 1148.92 646.516 1148 646.516 1146.82 646.516 1145.81 646.844 1144.99 647.5 1144.16 648.156 1143.46 649.13 1142.88 650.422 1142.29 651.714 1141.75 653.453 1141.25 655.641L1140.47 659.047 1148.5 659.047 1147.82 662.203 1139.75 662.203 1133.94 689.453C1132.98 693.974 1131.51 697.344 1129.53 699.563 1127.56 701.781 1125.07 702.891 1122.07 702.891 1121.19 702.891 1120.5 702.839 1120 702.735L1120.53 699.985C1120.74 700.047 1121.23 700.078 1122 700.078 1122.94 700.078 1123.74 699.839 1124.41 699.36 1125.08 698.88 1125.7 698.047 1126.27 696.86 1126.84 695.672 1127.37 694.026 1127.85 691.922L1134.57 662.203 1129.28 662.203 1129.75 660.047C1131.15 659.964 1132.15 659.849 1132.77 659.703 1133.38 659.557 1133.86 659.339 1134.21 659.047 1134.55 658.755 1134.84 658.375 1135.08 657.906 1135.32 657.438 1135.63 656.578 1136 655.328 1137.11 651.578 1138.81 648.761 1141.11 646.875 1143.41 644.99 1146.35 644.047 1149.91 644.047Z" fill-rule="evenodd"/><text fill="#000000" fill-opacity="0" font-family="Arial,Arial_MSFontService,sans-serif" font-size="58.8438" x="1120" y="695.535">ğ‘“</text><path d="M1163.7 681.651C1163.01 681.651 1162.25 681.877 1161.42 682.328 1160.6 682.78 1159.78 683.449 1158.98 684.337 1158.18 685.224 1157.43 686.322 1156.75 687.63 1156.07 688.938 1155.53 690.441 1155.14 692.139 1155.01 692.965 1154.88 693.776 1154.72 694.572 1154.57 695.367 1154.49 696.109 1154.49 696.798 1154.49 698.037 1154.77 698.913 1155.33 699.426 1155.89 699.938 1156.79 700.194 1158.03 700.194 1159.28 700.194 1160.44 699.793 1161.49 698.99 1162.55 698.186 1163.45 697.135 1164.21 695.834 1164.97 694.534 1165.56 693.073 1165.99 691.451 1166.42 689.829 1166.63 688.192 1166.63 686.54 1166.63 684.903 1166.4 683.679 1165.93 682.868 1165.47 682.057 1164.72 681.651 1163.7 681.651ZM1158.33 670.682 1159.98 670.682 1156.76 683.786 1157.09 683.946C1157.87 683.028 1158.61 682.229 1159.32 681.548 1160.03 680.867 1160.73 680.309 1161.41 679.873 1162.09 679.437 1162.77 679.112 1163.44 678.898 1164.12 678.683 1164.81 678.576 1165.53 678.576 1167.34 678.576 1168.73 679.234 1169.71 680.55 1170.69 681.866 1171.18 683.786 1171.18 686.31 1171.18 688.513 1170.84 690.59 1170.16 692.541 1169.47 694.492 1168.55 696.201 1167.39 697.67 1166.23 699.139 1164.88 700.298 1163.34 701.147 1161.8 701.996 1160.18 702.421 1158.46 702.421 1157.36 702.421 1156.34 702.31 1155.41 702.088 1154.48 701.866 1153.57 701.495 1152.68 700.975 1152.3 701.189 1151.91 701.426 1151.51 701.686 1151.11 701.946 1150.74 702.191 1150.38 702.421 1150.11 702.344 1149.82 702.271 1149.51 702.203 1149.21 702.134 1148.92 702.053 1148.64 701.962L1154.15 677.36C1154.32 676.595 1154.44 675.968 1154.53 675.478 1154.61 674.989 1154.65 674.56 1154.65 674.193 1154.65 673.902 1154.61 673.65 1154.52 673.436 1154.42 673.221 1154.26 673.049 1154.03 672.919 1153.8 672.789 1153.5 672.694 1153.12 672.632 1152.73 672.571 1152.25 672.533 1151.67 672.518L1152.01 670.957Z" fill-rule="evenodd"/><text fill="#000000" fill-opacity="0" font-family="Arial,Arial_MSFontService,sans-serif" font-size="31.7388" x="1148.64" y="698.453">ğ‘</text><path d="M1200.46 675.047 1238.96 675.047 1238.96 679.203 1200.46 679.203ZM1200.46 662.078 1238.96 662.078 1238.96 666.235 1200.46 666.235Z" fill-rule="evenodd"/><text fill="#000000" fill-opacity="0" font-family="Arial,Arial_MSFontService,sans-serif" font-size="17.125" x="1200.46" y="677.063">=</text><path d="M1271.57 658.516C1272.88 658.516 1273.91 658.948 1274.68 659.813 1275.44 660.677 1275.82 661.807 1275.82 663.203 1275.82 664.245 1275.62 665.318 1275.22 666.422L1275.63 666.578C1277.67 663.807 1279.63 661.776 1281.52 660.485 1283.4 659.193 1285.32 658.547 1287.25 658.547 1288.77 658.547 1290.04 658.662 1291.07 658.891L1289.57 665.891 1286.35 665.891C1286.22 665.016 1286.04 664.339 1285.82 663.86 1285.59 663.38 1285.32 663.047 1285 662.86 1284.69 662.672 1284.29 662.578 1283.82 662.578 1283.07 662.578 1282.25 662.901 1281.36 663.547 1280.48 664.193 1279.48 665.203 1278.38 666.578 1277.27 667.953 1276.39 669.276 1275.74 670.547 1275.08 671.818 1274.53 673.432 1274.1 675.391L1271.13 688.922 1265.72 688.922 1270.25 669.11C1270.54 667.86 1270.73 666.891 1270.82 666.203 1270.9 665.516 1270.94 664.943 1270.94 664.485 1270.94 663.651 1270.81 663.047 1270.53 662.672 1270.26 662.297 1269.84 662.11 1269.25 662.11 1268.61 662.11 1267.93 662.375 1267.21 662.906 1266.49 663.438 1265.5 664.401 1264.25 665.797L1262.47 664.047C1264.39 662.047 1265.99 660.625 1267.28 659.781 1268.58 658.938 1270 658.516 1271.57 658.516Z" fill-rule="evenodd"/><text fill="#000000" fill-opacity="0" font-family="Arial,Arial_MSFontService,sans-serif" font-size="30.4062" x="1262.47" y="685.121">ğ‘Ÿ</text><path d="M1329.48 650.547 1333.92 650.547 1333.92 668.547 1350.95 668.547 1350.95 672.703 1333.92 672.703 1333.92 690.703 1329.48 690.703 1329.48 672.703 1312.45 672.703 1312.45 668.547 1329.48 668.547Z" fill-rule="evenodd"/><text fill="#000000" fill-opacity="0" font-family="Arial,Arial_MSFontService,sans-serif" font-size="40.1562" x="1312.45" y="685.684">+</text><path d="M1393.17 662.203C1392.11 662.203 1391.06 662.563 1390.03 663.281 1389 664 1387.87 665.151 1386.64 666.735 1385.41 668.318 1384.45 669.88 1383.77 671.422 1383.08 672.964 1382.54 674.735 1382.14 676.735L1381.89 678.047C1381.68 679.151 1381.55 679.995 1381.5 680.578 1381.45 681.162 1381.42 681.735 1381.42 682.297 1381.42 683.922 1381.77 685.104 1382.47 685.844 1383.17 686.583 1384.37 686.953 1386.08 686.953 1387.14 686.953 1388.12 686.745 1389.02 686.328 1389.91 685.912 1390.76 685.307 1391.56 684.516 1392.36 683.724 1393.09 682.766 1393.73 681.641 1394.38 680.516 1394.96 679.208 1395.47 677.719 1395.98 676.229 1396.36 674.698 1396.63 673.125 1396.89 671.552 1397.02 670.078 1397.02 668.703 1397.02 666.516 1396.71 664.886 1396.09 663.813 1395.48 662.74 1394.51 662.203 1393.17 662.203ZM1380.02 658.516C1381.31 658.516 1382.33 658.943 1383.09 659.797 1383.85 660.651 1384.23 661.787 1384.23 663.203 1384.23 664.37 1383.99 665.599 1383.52 666.891L1383.89 667.016C1387.74 661.37 1391.58 658.547 1395.39 658.547 1397.66 658.547 1399.43 659.412 1400.69 661.141 1401.95 662.87 1402.58 665.307 1402.58 668.453 1402.58 671.891 1401.89 675.271 1400.5 678.594 1399.11 681.917 1397.19 684.552 1394.73 686.5 1392.28 688.448 1389.53 689.422 1386.48 689.422 1383.71 689.422 1381.41 688.818 1379.58 687.61L1378.14 694.453C1377.83 695.932 1377.67 697.151 1377.67 698.11 1377.67 699.026 1377.91 699.677 1378.38 700.063 1378.84 700.448 1379.76 700.703 1381.11 700.828L1380.86 702.36 1371.2 702.36 1378.73 669.203C1379.17 667.287 1379.39 665.714 1379.39 664.485 1379.39 663.651 1379.26 663.047 1378.98 662.672 1378.71 662.297 1378.29 662.11 1377.7 662.11 1377.06 662.11 1376.38 662.375 1375.66 662.906 1374.94 663.438 1373.95 664.401 1372.7 665.797L1370.92 664.047C1372.8 662.089 1374.39 660.677 1375.69 659.813 1376.99 658.948 1378.43 658.516 1380.02 658.516Z" fill-rule="evenodd"/><text fill="#000000" fill-opacity="0" font-family="Arial,Arial_MSFontService,sans-serif" font-size="43.8438" x="1370.92" y="696.879">ğ‘</text><text font-family="Arial,Arial_MSFontService,sans-serif" font-weight="400" font-size="64" transform="matrix(1 0 0 1 779.587 766)">Latency </text><path d="M1037.45 721.235 1039.3 721.235 1031.61 755.828C1031.15 757.891 1030.92 759.432 1030.92 760.453 1030.92 761.287 1031.06 761.891 1031.33 762.266 1031.6 762.641 1032.02 762.828 1032.61 762.828 1033.23 762.828 1033.9 762.573 1034.61 762.063 1035.32 761.552 1036.32 760.578 1037.61 759.141L1039.39 760.891C1037.37 763.016 1035.72 764.469 1034.44 765.25 1033.15 766.031 1031.72 766.422 1030.14 766.422 1028.78 766.422 1027.7 765.927 1026.89 764.938 1026.08 763.948 1025.67 762.682 1025.67 761.141 1025.67 759.745 1025.96 757.724 1026.55 755.078L1032.14 730.047C1032.39 728.943 1032.57 728.063 1032.67 727.406 1032.77 726.75 1032.83 726.141 1032.83 725.578 1032.83 724.953 1032.71 724.479 1032.48 724.156 1032.25 723.833 1031.93 723.599 1031.5 723.453 1031.07 723.307 1030.31 723.203 1029.2 723.141L1029.58 721.516Z" fill-rule="evenodd"/><text fill="#000000" fill-opacity="0" font-family="Arial,Arial_MSFontService,sans-serif" font-size="45.1875" x="1025.67" y="760.774">ğ‘™</text><path d="M1059.13 758.651C1058.44 758.651 1057.68 758.877 1056.85 759.328 1056.03 759.78 1055.21 760.449 1054.41 761.337 1053.61 762.224 1052.87 763.322 1052.18 764.63 1051.5 765.938 1050.96 767.441 1050.57 769.139 1050.44 769.965 1050.31 770.776 1050.15 771.572 1050 772.367 1049.92 773.109 1049.92 773.798 1049.92 775.037 1050.2 775.913 1050.76 776.426 1051.32 776.938 1052.22 777.194 1053.46 777.194 1054.71 777.194 1055.87 776.793 1056.92 775.99 1057.98 775.186 1058.89 774.135 1059.64 772.834 1060.4 771.534 1060.99 770.073 1061.42 768.451 1061.85 766.829 1062.06 765.192 1062.06 763.54 1062.06 761.903 1061.83 760.679 1061.36 759.868 1060.9 759.057 1060.15 758.651 1059.13 758.651ZM1053.76 747.682 1055.41 747.682 1052.2 760.786 1052.52 760.946C1053.3 760.028 1054.04 759.229 1054.75 758.548 1055.47 757.867 1056.16 757.309 1056.84 756.873 1057.52 756.437 1058.2 756.112 1058.87 755.898 1059.55 755.683 1060.24 755.576 1060.96 755.576 1062.77 755.576 1064.16 756.234 1065.14 757.55 1066.12 758.866 1066.61 760.786 1066.61 763.31 1066.61 765.513 1066.27 767.59 1065.59 769.541 1064.91 771.492 1063.98 773.201 1062.82 774.67 1061.66 776.139 1060.31 777.298 1058.77 778.147 1057.23 778.996 1055.61 779.421 1053.89 779.421 1052.79 779.421 1051.78 779.31 1050.84 779.088 1049.91 778.866 1049 778.495 1048.11 777.975 1047.73 778.189 1047.34 778.426 1046.94 778.686 1046.54 778.946 1046.17 779.191 1045.82 779.421 1045.54 779.344 1045.25 779.271 1044.94 779.203 1044.64 779.134 1044.35 779.053 1044.07 778.962L1049.58 754.36C1049.75 753.595 1049.87 752.968 1049.96 752.478 1050.04 751.989 1050.08 751.56 1050.08 751.193 1050.08 750.902 1050.04 750.65 1049.95 750.436 1049.85 750.221 1049.69 750.049 1049.46 749.919 1049.24 749.789 1048.93 749.694 1048.55 749.632 1048.16 749.571 1047.68 749.533 1047.1 749.518L1047.45 747.957Z" fill-rule="evenodd"/><text fill="#000000" fill-opacity="0" font-family="Arial,Arial_MSFontService,sans-serif" font-size="31.7388" x="1044.07" y="775.453">ğ‘</text><path d="M1095.89 752.047 1134.39 752.047 1134.39 756.203 1095.89 756.203ZM1095.89 739.078 1134.39 739.078 1134.39 743.235 1095.89 743.235Z" fill-rule="evenodd"/><text fill="#000000" fill-opacity="0" font-family="Arial,Arial_MSFontService,sans-serif" font-size="17.125" x="1095.89" y="754.063">=</text><path d="M1167 735.516C1168.31 735.516 1169.35 735.948 1170.11 736.813 1170.87 737.677 1171.25 738.807 1171.25 740.203 1171.25 741.245 1171.05 742.318 1170.65 743.422L1171.06 743.578C1173.1 740.807 1175.06 738.776 1176.95 737.485 1178.84 736.193 1180.75 735.547 1182.68 735.547 1184.21 735.547 1185.48 735.662 1186.5 735.891L1185 742.891 1181.78 742.891C1181.65 742.016 1181.48 741.339 1181.25 740.86 1181.02 740.38 1180.75 740.047 1180.43 739.86 1180.12 739.672 1179.73 739.578 1179.25 739.578 1178.5 739.578 1177.68 739.901 1176.79 740.547 1175.91 741.193 1174.91 742.203 1173.81 743.578 1172.71 744.953 1171.83 746.276 1171.17 747.547 1170.51 748.818 1169.97 750.432 1169.53 752.391L1166.56 765.922 1161.15 765.922 1165.68 746.11C1165.98 744.86 1166.16 743.891 1166.25 743.203 1166.33 742.516 1166.37 741.943 1166.37 741.485 1166.37 740.651 1166.24 740.047 1165.97 739.672 1165.69 739.297 1165.27 739.11 1164.68 739.11 1164.04 739.11 1163.36 739.375 1162.64 739.906 1161.92 740.438 1160.93 741.401 1159.68 742.797L1157.9 741.047C1159.82 739.047 1161.42 737.625 1162.72 736.781 1164.01 735.938 1165.43 735.516 1167 735.516Z" fill-rule="evenodd"/><text fill="#000000" fill-opacity="0" font-family="Arial,Arial_MSFontService,sans-serif" font-size="30.4062" x="1157.9" y="762.121">ğ‘Ÿ</text><path d="M1224.91 727.547 1229.35 727.547 1229.35 745.547 1246.38 745.547 1246.38 749.703 1229.35 749.703 1229.35 767.703 1224.91 767.703 1224.91 749.703 1207.88 749.703 1207.88 745.547 1224.91 745.547Z" fill-rule="evenodd"/><text fill="#000000" fill-opacity="0" font-family="Arial,Arial_MSFontService,sans-serif" font-size="40.1562" x="1207.88" y="762.684">+</text><path d="M1288.6 739.203C1287.54 739.203 1286.49 739.563 1285.46 740.281 1284.43 741 1283.3 742.151 1282.07 743.735 1280.84 745.318 1279.88 746.88 1279.2 748.422 1278.51 749.964 1277.97 751.735 1277.57 753.735L1277.32 755.047C1277.11 756.151 1276.98 756.995 1276.93 757.578 1276.88 758.162 1276.85 758.735 1276.85 759.297 1276.85 760.922 1277.2 762.104 1277.9 762.844 1278.6 763.583 1279.8 763.953 1281.51 763.953 1282.57 763.953 1283.55 763.745 1284.45 763.328 1285.34 762.912 1286.19 762.307 1286.99 761.516 1287.8 760.724 1288.52 759.766 1289.17 758.641 1289.81 757.516 1290.39 756.208 1290.9 754.719 1291.41 753.229 1291.8 751.698 1292.06 750.125 1292.32 748.552 1292.45 747.078 1292.45 745.703 1292.45 743.516 1292.14 741.886 1291.53 740.813 1290.91 739.74 1289.94 739.203 1288.6 739.203ZM1275.45 735.516C1276.74 735.516 1277.76 735.943 1278.53 736.797 1279.29 737.651 1279.67 738.787 1279.67 740.203 1279.67 741.37 1279.43 742.599 1278.95 743.891L1279.32 744.016C1283.18 738.37 1287.01 735.547 1290.82 735.547 1293.09 735.547 1294.86 736.412 1296.12 738.141 1297.38 739.87 1298.01 742.307 1298.01 745.453 1298.01 748.891 1297.32 752.271 1295.93 755.594 1294.55 758.917 1292.62 761.552 1290.17 763.5 1287.71 765.448 1284.96 766.422 1281.92 766.422 1279.15 766.422 1276.84 765.818 1275.01 764.61L1273.57 771.453C1273.26 772.932 1273.1 774.151 1273.1 775.11 1273.1 776.026 1273.34 776.677 1273.81 777.063 1274.28 777.448 1275.19 777.703 1276.54 777.828L1276.29 779.36 1266.63 779.36 1274.17 746.203C1274.6 744.287 1274.82 742.714 1274.82 741.485 1274.82 740.651 1274.69 740.047 1274.42 739.672 1274.15 739.297 1273.72 739.11 1273.13 739.11 1272.49 739.11 1271.81 739.375 1271.09 739.906 1270.37 740.438 1269.38 741.401 1268.13 742.797L1266.35 741.047C1268.23 739.089 1269.82 737.677 1271.12 736.813 1272.42 735.948 1273.86 735.516 1275.45 735.516Z" fill-rule="evenodd"/><text fill="#000000" fill-opacity="0" font-family="Arial,Arial_MSFontService,sans-serif" font-size="43.8438" x="1266.35" y="773.879">ğ‘</text></g></svg>