<svg width="2392" height="1216" xmlns="http://www.w3.org/2000/svg" xmlns:xlink="http://www.w3.org/1999/xlink" xml:space="preserve" overflow="hidden"><defs><linearGradient x1="1337.5" y1="155.5" x2="1337.5" y2="1366.5" gradientUnits="userSpaceOnUse" spreadMethod="reflect" id="fill0"><stop offset="0" stop-color="#9B9B9B"/><stop offset="0.5" stop-color="#8E8E8E"/><stop offset="1" stop-color="#797979"/></linearGradient></defs><g transform="translate(-156 -153)"><rect x="158.5" y="155.5" width="2358" height="1211" stroke="#000000" stroke-width="4.58333" stroke-miterlimit="8" fill="url(#fill0)"/><rect x="177.5" y="185.5" width="1118" height="122" stroke="#156082" stroke-width="6.875" stroke-miterlimit="8" fill="#FFFFFF"/><text font-family="Arial,Arial_MSFontService,sans-serif" font-weight="400" font-size="64" transform="matrix(1 0 0 1 353.208 269)">device 0, render frame n+1</text><rect x="177.5" y="325.5" width="1118" height="121" stroke="#156082" stroke-width="6.875" stroke-miterlimit="8" fill="#FFFFFF"/><text font-family="Arial,Arial_MSFontService,sans-serif" font-weight="400" font-size="64" transform="matrix(1 0 0 1 353.208 409)">device 1, render frame n+1</text><rect x="177.5" y="744.5" width="883" height="121" stroke="#E97132" stroke-width="6.875" stroke-miterlimit="8" fill="#FFFFFF"/><text font-family="Arial,Arial_MSFontService,sans-serif" font-weight="400" font-size="64" transform="matrix(1 0 0 1 270.454 828)">transfer frame n to dev 0</text><rect x="1083.5" y="744.5" width="39.9999" height="121" stroke="#196B24" stroke-width="6.875" stroke-miterlimit="8" fill="#FFFFFF"/><text font-family="Arial,Arial_MSFontService,sans-serif" font-weight="400" font-size="64" transform="matrix(1 0 0 1 825.487 943)">present frame n</text><rect x="177.5" y="465.5" width="1118" height="121" stroke="#156082" stroke-width="6.875" stroke-miterlimit="8" fill="#FFFFFF"/><text font-family="Arial,Arial_MSFontService,sans-serif" font-weight="400" font-size="64" transform="matrix(1 0 0 1 353.208 549)">device 2, render frame n+1</text><rect x="177.5" y="604.5" width="1118" height="122" stroke="#156082" stroke-width="6.875" stroke-miterlimit="8" fill="#FFFFFF"/><text font-family="Arial,Arial_MSFontService,sans-serif" font-weight="400" font-size="64" transform="matrix(1 0 0 1 353.208 688)">device 3, render frame n+1</text><rect x="1365.5" y="742.5" width="883" height="121" stroke="#E97132" stroke-width="6.875" stroke-miterlimit="8" fill="#FFFFFF"/><text font-family="Arial,Arial_MSFontService,sans-serif" font-weight="400" font-size="64" transform="matrix(1 0 0 1 1422.24 826)">transfer frame n+1 to dev 0</text><rect x="2271.5" y="742.5" width="39.9998" height="121" stroke="#196B24" stroke-width="6.875" stroke-miterlimit="8" fill="#FFFFFF"/><text font-family="Arial,Arial_MSFontService,sans-serif" font-weight="400" font-size="64" transform="matrix(1 0 0 1 1989.05 938)">present frame n+1</text><rect x="1365.5" y="185.5" width="1118" height="122" stroke="#156082" stroke-width="6.875" stroke-miterlimit="8" fill="#FFFFFF"/><text font-family="Arial,Arial_MSFontService,sans-serif" font-weight="400" font-size="64" transform="matrix(1 0 0 1 1541.37 269)">device 0, render frame n+2</text><rect x="1365.5" y="325.5" width="1118" height="121" stroke="#156082" stroke-width="6.875" stroke-miterlimit="8" fill="#FFFFFF"/><text font-family="Arial,Arial_MSFontService,sans-serif" font-weight="400" font-size="64" transform="matrix(1 0 0 1 1541.37 409)">device 1, render frame n+2</text><rect x="1365.5" y="465.5" width="1118" height="121" stroke="#156082" stroke-width="6.875" stroke-miterlimit="8" fill="#FFFFFF"/><text font-family="Arial,Arial_MSFontService,sans-serif" font-weight="400" font-size="64" transform="matrix(1 0 0 1 1541.37 549)">device 2, render frame n+2</text><rect x="1365.5" y="604.5" width="1118" height="122" stroke="#156082" stroke-width="6.875" stroke-miterlimit="8" fill="#FFFFFF"/><text font-family="Arial,Arial_MSFontService,sans-serif" font-weight="400" font-size="64" transform="matrix(1 0 0 1 1541.37 688)">device 3, render frame n+2</text><text font-family="Arial,Arial_MSFontService,sans-serif" font-weight="400" font-size="64" transform="matrix(1 0 0 1 243.647 1289)">Frame time </text><path d="M613.97 1244.41C616.012 1244.41 617.772 1244.58 619.252 1244.91L618.033 1250.23 615.283 1250.23C614.991 1249.04 614.611 1248.19 614.142 1247.66 613.673 1247.14 612.981 1246.88 612.064 1246.88 610.877 1246.88 609.871 1247.21 609.048 1247.87 608.226 1248.52 607.522 1249.5 606.939 1250.79 606.356 1252.08 605.814 1253.82 605.314 1256.01L604.533 1259.41 612.564 1259.41 611.877 1262.57 603.814 1262.57 598.002 1289.82C597.043 1294.34 595.575 1297.71 593.595 1299.93 591.616 1302.15 589.127 1303.26 586.127 1303.26 585.252 1303.26 584.564 1303.21 584.064 1303.1L584.595 1300.35C584.804 1300.41 585.293 1300.45 586.064 1300.45 587.002 1300.45 587.804 1300.21 588.47 1299.73 589.137 1299.25 589.757 1298.41 590.33 1297.23 590.903 1296.04 591.429 1294.39 591.908 1292.29L598.627 1262.57 593.345 1262.57 593.814 1260.41C595.21 1260.33 596.215 1260.22 596.83 1260.07 597.444 1259.92 597.923 1259.71 598.267 1259.41 598.611 1259.12 598.903 1258.74 599.142 1258.27 599.382 1257.81 599.689 1256.95 600.064 1255.7 601.168 1251.95 602.871 1249.13 605.173 1247.24 607.476 1245.36 610.408 1244.41 613.97 1244.41Z" fill-rule="evenodd"/><text fill="#000000" fill-opacity="0" font-family="Arial,Arial_MSFontService,sans-serif" font-size="58.8438" x="584.064" y="1295.9">ğ‘“</text><path d="M621.15 1278.94C622.634 1278.94 624 1279.04 625.247 1279.22 626.493 1279.4 627.706 1279.67 628.884 1280.02L627.782 1285.21 625.74 1285.21C625.572 1283.83 625.117 1282.81 624.375 1282.16 623.633 1281.5 622.481 1281.17 620.921 1281.17 620.293 1281.17 619.712 1281.25 619.177 1281.42 618.641 1281.59 618.182 1281.82 617.8 1282.12 617.417 1282.42 617.119 1282.78 616.905 1283.19 616.69 1283.6 616.583 1284.05 616.583 1284.54 616.583 1284.99 616.637 1285.39 616.744 1285.76 616.851 1286.13 617.061 1286.49 617.375 1286.84 617.689 1287.19 618.132 1287.56 618.706 1287.94 619.28 1288.32 620.033 1288.76 620.967 1289.25 621.946 1289.78 622.76 1290.3 623.411 1290.79 624.061 1291.28 624.577 1291.77 624.96 1292.28 625.342 1292.78 625.61 1293.32 625.763 1293.9 625.916 1294.47 625.992 1295.11 625.992 1295.81 625.992 1296.9 625.771 1297.87 625.327 1298.74 624.883 1299.6 624.264 1300.33 623.468 1300.93 622.672 1301.53 621.735 1301.98 620.657 1302.31 619.578 1302.63 618.396 1302.79 617.111 1302.79 615.704 1302.79 614.319 1302.7 612.957 1302.51 611.596 1302.33 610.157 1302.02 608.643 1301.57L609.836 1296.34 611.833 1296.34C611.909 1297.76 612.357 1298.83 613.175 1299.54 613.994 1300.25 615.26 1300.61 616.973 1300.61 618.503 1300.61 619.708 1300.28 620.588 1299.62 621.468 1298.96 621.907 1298.05 621.907 1296.87 621.907 1296.33 621.854 1295.87 621.747 1295.48 621.64 1295.09 621.429 1294.72 621.116 1294.37 620.802 1294.01 620.374 1293.65 619.831 1293.28 619.287 1292.9 618.58 1292.47 617.708 1291.98 616.805 1291.47 616.029 1290.98 615.378 1290.49 614.728 1290 614.193 1289.5 613.772 1289 613.351 1288.49 613.041 1287.96 612.843 1287.41 612.644 1286.86 612.544 1286.27 612.544 1285.65 612.544 1284.68 612.747 1283.79 613.152 1282.97 613.558 1282.15 614.135 1281.45 614.885 1280.85 615.635 1280.25 616.537 1279.79 617.593 1279.45 618.649 1279.11 619.834 1278.94 621.15 1278.94Z" fill-rule="evenodd"/><text fill="#000000" fill-opacity="0" font-family="Arial,Arial_MSFontService,sans-serif" font-size="23.8442" x="608.643" y="1299.81">ğ‘ </text><path d="M656.541 1275.41 695.041 1275.41 695.041 1279.57 656.541 1279.57ZM656.541 1262.45 695.041 1262.45 695.041 1266.6 656.541 1266.6Z" fill-rule="evenodd"/><text fill="#000000" fill-opacity="0" font-family="Arial,Arial_MSFontService,sans-serif" font-size="17.125" x="656.541" y="1277.43">=</text><path d="M791.402 1275.04C787.172 1275.08 784.006 1275.64 781.902 1276.73 779.797 1277.81 778.745 1279.45 778.745 1281.63 778.745 1282.82 778.985 1283.76 779.464 1284.45 779.943 1285.13 780.547 1285.61 781.277 1285.87 782.006 1286.13 782.87 1286.26 783.87 1286.26 785.287 1286.26 786.573 1285.91 787.73 1285.23 788.886 1284.54 789.787 1283.66 790.433 1282.6 791.079 1281.54 791.402 1280.49 791.402 1279.45ZM804.152 1259.41 816.402 1259.41 816.402 1260.95C814.756 1261.2 813.933 1261.84 813.933 1262.88 813.933 1263.36 814.042 1263.84 814.261 1264.32 814.48 1264.8 814.818 1265.33 815.277 1265.91L819.089 1271.26 823.152 1266.1C823.589 1265.54 823.943 1264.99 824.214 1264.46 824.485 1263.93 824.62 1263.38 824.62 1262.82 824.62 1262.34 824.443 1261.95 824.089 1261.63 823.735 1261.32 823.183 1261.09 822.433 1260.95L822.433 1259.41 832.652 1259.41 832.652 1260.95C831.86 1261.17 831.053 1261.62 830.23 1262.29 829.407 1262.96 828.402 1264.03 827.214 1265.51L820.745 1273.45 827.87 1283.04C828.891 1284.41 829.808 1285.47 830.62 1286.2 831.433 1286.92 832.245 1287.45 833.058 1287.76L833.058 1289.29 820.495 1289.29 820.495 1287.76C822.224 1287.55 823.089 1286.9 823.089 1285.82 823.089 1285.38 823.016 1284.97 822.87 1284.57 822.724 1284.17 822.454 1283.72 822.058 1283.2L817.527 1276.88 812.714 1283.13C812.36 1283.59 812.084 1284.01 811.886 1284.4 811.688 1284.78 811.589 1285.22 811.589 1285.7 811.589 1286.26 811.782 1286.72 812.167 1287.09 812.553 1287.45 813.162 1287.67 813.995 1287.76L813.995 1289.29 803.558 1289.29 803.558 1287.76C804.245 1287.51 804.865 1287.2 805.417 1286.82 805.969 1286.45 806.532 1285.96 807.105 1285.37 807.678 1284.77 808.433 1283.9 809.37 1282.76L815.87 1274.7 809.214 1265.57C808.297 1264.32 807.568 1263.41 807.027 1262.85 806.485 1262.29 805.985 1261.86 805.527 1261.57 805.068 1261.28 804.61 1261.07 804.152 1260.95ZM739.277 1258.91C741.36 1258.91 743.058 1259.39 744.37 1260.35 745.683 1261.31 746.589 1262.78 747.089 1264.76 748.652 1263.17 749.917 1262.01 750.886 1261.26 751.855 1260.51 752.844 1259.93 753.855 1259.52 754.865 1259.12 755.954 1258.91 757.12 1258.91 758.516 1258.91 759.719 1259.12 760.73 1259.52 761.74 1259.93 762.594 1260.56 763.292 1261.4 763.99 1262.24 764.501 1263.3 764.823 1264.57 765.146 1265.84 765.308 1267.55 765.308 1269.7L765.308 1281.48C765.308 1283.06 765.36 1284.15 765.464 1284.76 765.568 1285.36 765.719 1285.83 765.917 1286.16 766.115 1286.5 766.412 1286.78 766.808 1287.02 767.204 1287.26 767.87 1287.51 768.808 1287.76L768.808 1289.29 756.527 1289.29 756.527 1287.76C757.339 1287.51 757.922 1287.29 758.277 1287.1 758.631 1286.91 758.928 1286.65 759.167 1286.32 759.407 1285.99 759.594 1285.47 759.73 1284.77 759.865 1284.08 759.933 1283.02 759.933 1281.6L759.933 1273.41C759.933 1271.64 759.886 1270.18 759.792 1269.02 759.698 1267.87 759.553 1266.95 759.355 1266.26 759.157 1265.57 758.917 1265.03 758.636 1264.63 758.355 1264.24 758.037 1263.89 757.683 1263.6 757.329 1263.31 756.912 1263.08 756.433 1262.91 755.954 1262.75 755.318 1262.66 754.527 1262.66 753.693 1262.66 752.917 1262.83 752.198 1263.16 751.48 1263.5 750.698 1264.06 749.855 1264.85 749.011 1265.64 748.402 1266.44 748.027 1267.24 747.652 1268.04 747.464 1268.99 747.464 1270.07L747.464 1281.48C747.464 1283.06 747.516 1284.15 747.62 1284.76 747.725 1285.36 747.876 1285.83 748.073 1286.16 748.271 1286.5 748.568 1286.78 748.964 1287.02 749.36 1287.26 750.027 1287.51 750.964 1287.76L750.964 1289.29 738.683 1289.29 738.683 1287.76C739.495 1287.51 740.079 1287.29 740.433 1287.1 740.787 1286.91 741.084 1286.65 741.323 1286.32 741.563 1285.99 741.751 1285.47 741.886 1284.77 742.021 1284.08 742.089 1283.02 742.089 1281.6L742.089 1273.41C742.089 1271.56 742.037 1270.05 741.933 1268.88 741.829 1267.72 741.667 1266.78 741.448 1266.07 741.23 1265.36 740.948 1264.79 740.605 1264.35 740.261 1263.91 739.912 1263.58 739.558 1263.35 739.204 1263.12 738.787 1262.95 738.308 1262.84 737.829 1262.72 737.287 1262.66 736.683 1262.66 735.829 1262.66 735.027 1262.86 734.277 1263.24 733.527 1263.63 732.761 1264.19 731.98 1264.91 731.198 1265.64 730.61 1266.4 730.214 1267.2 729.818 1267.99 729.62 1268.84 729.62 1269.76L729.62 1281.48C729.62 1282.66 729.652 1283.57 729.714 1284.2 729.777 1284.82 729.876 1285.31 730.011 1285.66 730.146 1286.02 730.318 1286.31 730.527 1286.52 730.735 1286.74 731.032 1286.95 731.417 1287.15 731.803 1287.35 732.381 1287.55 733.152 1287.76L733.152 1289.29 720.902 1289.29 720.902 1287.76C721.693 1287.51 722.261 1287.29 722.605 1287.1 722.948 1286.91 723.245 1286.65 723.495 1286.32 723.745 1285.99 723.933 1285.48 724.058 1284.79 724.183 1284.1 724.245 1283.03 724.245 1281.57L724.245 1267.95C724.245 1266.61 724.225 1265.54 724.183 1264.73 724.141 1263.91 723.995 1263.26 723.745 1262.77 723.495 1262.28 723.115 1261.92 722.605 1261.68 722.094 1261.44 721.37 1261.24 720.433 1261.07L720.433 1259.41 727.745 1259.13 729.652 1259.13 729.308 1264.23 729.745 1264.35C730.995 1263.1 732.021 1262.16 732.823 1261.52 733.626 1260.89 734.402 1260.38 735.152 1259.99 735.902 1259.61 736.605 1259.33 737.261 1259.16 737.917 1259 738.589 1258.91 739.277 1258.91ZM788.027 1258.88C790.089 1258.88 791.745 1259.21 792.995 1259.87 794.245 1260.52 795.183 1261.53 795.808 1262.88 796.433 1264.24 796.745 1266.28 796.745 1269.01L796.745 1279.88C796.745 1281.42 796.756 1282.51 796.777 1283.15 796.797 1283.78 796.86 1284.37 796.964 1284.91 797.068 1285.46 797.224 1285.89 797.433 1286.21 797.641 1286.53 797.948 1286.81 798.355 1287.04 798.761 1287.27 799.422 1287.51 800.339 1287.76L800.339 1289.29 791.777 1289.29 791.933 1284.82 791.464 1284.7C789.652 1286.55 787.948 1287.86 786.355 1288.63 784.761 1289.4 783.068 1289.79 781.277 1289.79 779.693 1289.79 778.297 1289.48 777.089 1288.87 775.881 1288.25 774.954 1287.39 774.308 1286.27 773.662 1285.16 773.339 1283.87 773.339 1282.41 773.339 1279.37 774.844 1277.02 777.855 1275.37 780.865 1273.71 785.381 1272.75 791.402 1272.48L791.402 1270.45C791.402 1268.28 791.193 1266.57 790.777 1265.32 790.36 1264.07 789.704 1263.15 788.808 1262.57 787.912 1261.99 786.714 1261.7 785.214 1261.7 783.589 1261.7 782.282 1262.12 781.292 1262.98 780.303 1263.83 779.558 1265.11 779.058 1266.82L774.964 1266.82 774.964 1262.76C776.964 1261.72 778.631 1260.95 779.964 1260.46 781.297 1259.97 782.631 1259.59 783.964 1259.31 785.297 1259.02 786.652 1258.88 788.027 1258.88Z" fill-rule="evenodd"/><text fill="#000000" fill-opacity="0" font-family="Arial,Arial_MSFontService,sans-serif" font-size="30.9062" x="720.433" y="1285.93">max</text><path d="M1116.03 1218.22C1123.01 1221.76 1128.56 1228.26 1132.67 1237.72 1136.79 1247.18 1138.84 1258.26 1138.84 1270.97 1138.84 1283.59 1136.79 1294.68 1132.67 1304.22 1128.56 1313.76 1123.01 1320.28 1116.03 1323.78L1115.03 1321.28C1120.61 1317.66 1124.98 1311.43 1128.14 1302.59 1131.3 1293.76 1132.87 1283.24 1132.87 1271.03 1132.87 1258.59 1131.29 1248.01 1128.11 1239.27 1124.93 1230.53 1120.57 1224.34 1115.03 1220.72ZM872.552 1218.22 873.583 1220.72C868.041 1224.34 863.682 1230.53 860.505 1239.27 857.328 1248.01 855.739 1258.59 855.739 1271.03 855.739 1283.24 857.312 1293.76 860.458 1302.59 863.604 1311.43 867.979 1317.66 873.583 1321.28L872.552 1323.78C865.593 1320.28 860.057 1313.76 855.942 1304.22 851.828 1294.68 849.77 1283.59 849.77 1270.97 849.77 1258.26 851.828 1247.18 855.942 1237.72 860.057 1228.26 865.593 1221.76 872.552 1218.22Z" fill-rule="evenodd"/><path d="M893.334 1222.12 894.734 1222.12C894.703 1222.97 894.68 1223.72 894.665 1224.39 894.65 1225.05 894.638 1225.7 894.631 1226.32 894.623 1226.95 894.619 1227.57 894.619 1228.18L894.619 1245.62C894.619 1246.1 894.634 1246.51 894.665 1246.85 894.696 1247.2 894.745 1247.49 894.814 1247.72 894.883 1247.96 894.975 1248.16 895.09 1248.33 895.204 1248.5 895.338 1248.65 895.491 1248.77 895.675 1248.95 895.92 1249.09 896.226 1249.19 896.532 1249.29 896.922 1249.38 897.396 1249.45 897.87 1249.51 898.44 1249.57 899.106 1249.61 899.771 1249.64 900.571 1249.67 901.504 1249.69L901.504 1251.68 883.305 1251.68 883.305 1249.69C884.208 1249.66 884.973 1249.62 885.6 1249.58 886.227 1249.55 886.763 1249.49 887.207 1249.42 887.65 1249.35 888.006 1249.28 888.274 1249.19 888.541 1249.11 888.775 1249.01 888.974 1248.88 889.188 1248.75 889.371 1248.6 889.524 1248.44 889.677 1248.28 889.8 1248.07 889.892 1247.83 889.983 1247.58 890.056 1247.28 890.11 1246.93 890.163 1246.58 890.19 1246.14 890.19 1245.62L890.19 1229.17C890.19 1228.57 890.075 1228.15 889.846 1227.91 889.616 1227.66 889.287 1227.54 888.859 1227.54 888.385 1227.54 887.681 1227.79 886.748 1228.28 885.814 1228.76 884.606 1229.49 883.122 1230.46 882.923 1230.1 882.739 1229.75 882.571 1229.4 882.403 1229.05 882.227 1228.69 882.043 1228.32 883.94 1227.28 885.818 1226.24 887.677 1225.21 889.536 1224.18 891.422 1223.15 893.334 1222.12Z" fill-rule="evenodd"/><text fill="#000000" fill-opacity="0" font-family="Arial,Arial_MSFontService,sans-serif" font-size="29.5586" x="882.043" y="1247.99">1</text><path d="M884.088 1298.13C885.221 1298.13 886.096 1298.5 886.716 1299.24 887.336 1299.98 887.646 1300.96 887.646 1302.16 887.646 1302.47 887.619 1302.79 887.565 1303.13 887.512 1303.46 887.416 1303.79 887.278 1304.09L887.6 1304.21C889.084 1302.17 890.549 1300.65 891.994 1299.64 893.44 1298.63 894.936 1298.13 896.481 1298.13 898.103 1298.13 899.315 1298.56 900.118 1299.43 900.922 1300.31 901.323 1301.53 901.323 1303.11 901.323 1303.58 901.254 1304.24 901.117 1305.08 900.979 1305.92 900.803 1306.84 900.589 1307.83 900.375 1308.83 900.145 1309.85 899.9 1310.9 899.656 1311.94 899.426 1312.91 899.212 1313.8 898.998 1314.69 898.822 1315.44 898.684 1316.07 898.546 1316.7 898.478 1317.09 898.478 1317.24 898.478 1317.82 898.585 1318.24 898.799 1318.5 899.013 1318.76 899.357 1318.89 899.832 1318.89 900.122 1318.89 900.409 1318.84 900.692 1318.73 900.975 1318.63 901.27 1318.46 901.576 1318.23 901.882 1318 902.218 1317.7 902.586 1317.35 902.953 1316.99 903.366 1316.55 903.825 1316.05L905.408 1317.56C904.659 1318.33 903.97 1318.99 903.343 1319.54 902.716 1320.09 902.107 1320.54 901.518 1320.9 900.929 1321.26 900.344 1321.53 899.763 1321.71 899.181 1321.88 898.562 1321.97 897.904 1321.97 897.353 1321.97 896.844 1321.86 896.378 1321.65 895.911 1321.43 895.51 1321.14 895.173 1320.76 894.836 1320.39 894.576 1319.95 894.393 1319.43 894.209 1318.92 894.117 1318.36 894.117 1317.75 894.117 1317.13 894.182 1316.42 894.312 1315.6 894.442 1314.78 894.637 1313.88 894.898 1312.9 895.173 1311.91 895.429 1310.96 895.666 1310.05 895.903 1309.14 896.11 1308.3 896.286 1307.52 896.462 1306.75 896.6 1306.06 896.699 1305.46 896.798 1304.85 896.848 1304.35 896.848 1303.95 896.848 1303.01 896.668 1302.31 896.309 1301.87 895.949 1301.42 895.372 1301.2 894.576 1301.2 894.117 1301.2 893.624 1301.32 893.096 1301.56 892.568 1301.79 892.036 1302.12 891.501 1302.54 890.966 1302.96 890.442 1303.46 889.929 1304.03 889.417 1304.61 888.946 1305.22 888.518 1305.87 888.089 1306.52 887.711 1307.2 887.382 1307.91 887.053 1308.62 886.812 1309.33 886.659 1310.04L884.088 1321.56 879.59 1321.56 883.033 1306.59C883.232 1305.8 883.377 1305.09 883.469 1304.46 883.561 1303.83 883.607 1303.32 883.607 1302.92 883.607 1301.8 883.155 1301.25 882.253 1301.25 881.977 1301.25 881.698 1301.3 881.415 1301.42 881.132 1301.53 880.833 1301.71 880.52 1301.93 880.206 1302.16 879.866 1302.45 879.499 1302.81 879.131 1303.16 878.718 1303.57 878.259 1304.05L876.676 1302.55C877.441 1301.77 878.141 1301.1 878.776 1300.55 879.411 1299.99 880.015 1299.53 880.589 1299.17 881.162 1298.81 881.732 1298.55 882.298 1298.38 882.865 1298.21 883.461 1298.13 884.088 1298.13Z" fill-rule="evenodd"/><text fill="#000000" fill-opacity="0" font-family="Arial,Arial_MSFontService,sans-serif" font-size="23.8442" x="876.676" y="1318.99">ğ‘›</text><path d="M875.647 1269.28 906.647 1269.28 906.647 1273.28 875.647 1273.28Z" fill-rule="evenodd"/><path d="M927.416 1258.88C928.729 1258.88 929.765 1259.32 930.526 1260.18 931.286 1261.04 931.666 1262.17 931.666 1263.57 931.666 1264.61 931.468 1265.69 931.072 1266.79L931.479 1266.95C933.52 1264.17 935.484 1262.14 937.369 1260.85 939.255 1259.56 941.166 1258.91 943.104 1258.91 944.625 1258.91 945.895 1259.03 946.916 1259.26L945.416 1266.26 942.197 1266.26C942.072 1265.38 941.895 1264.71 941.666 1264.23 941.437 1263.75 941.166 1263.41 940.854 1263.23 940.541 1263.04 940.145 1262.95 939.666 1262.95 938.916 1262.95 938.099 1263.27 937.213 1263.91 936.328 1264.56 935.333 1265.57 934.229 1266.95 933.125 1268.32 932.244 1269.64 931.588 1270.91 930.932 1272.19 930.385 1273.8 929.947 1275.76L926.979 1289.29 921.572 1289.29 926.104 1269.48C926.395 1268.23 926.583 1267.26 926.666 1266.57 926.75 1265.88 926.791 1265.31 926.791 1264.85 926.791 1264.02 926.656 1263.41 926.385 1263.04 926.114 1262.66 925.687 1262.48 925.104 1262.48 924.458 1262.48 923.776 1262.74 923.057 1263.27 922.338 1263.81 921.354 1264.77 920.104 1266.16L918.322 1264.41C920.239 1262.41 921.843 1260.99 923.135 1260.15 924.427 1259.31 925.854 1258.88 927.416 1258.88Z" fill-rule="evenodd"/><text fill="#000000" fill-opacity="0" font-family="Arial,Arial_MSFontService,sans-serif" font-size="30.4062" x="918.322" y="1285.49">ğ‘Ÿ</text><path d="M953.577 1282.04 959.045 1282.04C959.337 1283.5 959.483 1284.94 959.483 1286.35 959.483 1287.81 959.233 1289.14 958.733 1290.35 958.233 1291.56 957.436 1292.76 956.342 1293.96 955.248 1295.16 953.743 1296.48 951.827 1297.91L950.139 1296.01C951.202 1295.01 951.972 1294.11 952.452 1293.31 952.931 1292.5 953.275 1291.59 953.483 1290.57 953.691 1289.55 953.795 1288.27 953.795 1286.73 953.795 1285.14 953.722 1283.58 953.577 1282.04Z" fill-rule="evenodd"/><text fill="#000000" fill-opacity="0" font-family="Arial,Arial_MSFontService,sans-serif" font-size="15.875" x="950.139" y="1295.93">,</text><path d="M985.487 1251.7 989.799 1251.7 988.081 1259.41 997.581 1259.41 996.893 1262.57 987.393 1262.57 984.612 1274.7C984.07 1277.05 983.727 1278.74 983.581 1279.77 983.435 1280.81 983.362 1281.63 983.362 1282.26 983.362 1284.84 984.435 1286.13 986.581 1286.13 987.497 1286.13 988.471 1285.78 989.503 1285.09 990.534 1284.39 991.758 1283.2 993.174 1281.51L994.987 1283.38C993.174 1285.57 991.43 1287.19 989.753 1288.23 988.076 1289.27 986.32 1289.79 984.487 1289.79 980.133 1289.79 977.956 1287.59 977.956 1283.2 977.956 1281.8 978.133 1280.33 978.487 1278.79L982.174 1262.57 976.924 1262.57 977.393 1260.41C978.622 1260.39 979.555 1260.3 980.19 1260.13 980.826 1259.97 981.357 1259.74 981.784 1259.45 982.211 1259.15 982.602 1258.74 982.956 1258.2 983.31 1257.65 983.654 1256.96 983.987 1256.12 984.32 1255.27 984.82 1253.8 985.487 1251.7Z" fill-rule="evenodd"/><text fill="#000000" fill-opacity="0" font-family="Arial,Arial_MSFontService,sans-serif" font-size="38.0938" x="976.924" y="1285.03">ğ‘¡</text><path d="M1035.98 1250.91 1040.41 1250.91 1040.41 1268.91 1057.45 1268.91 1057.45 1273.07 1040.41 1273.07 1040.41 1291.07 1035.98 1291.07 1035.98 1273.07 1018.95 1273.07 1018.95 1268.91 1035.98 1268.91Z" fill-rule="evenodd"/><text fill="#000000" fill-opacity="0" font-family="Arial,Arial_MSFontService,sans-serif" font-size="40.1562" x="1018.95" y="1286.05">+</text><path d="M1099.67 1262.57C1098.61 1262.57 1097.56 1262.93 1096.53 1263.65 1095.5 1264.37 1094.37 1265.52 1093.14 1267.1 1091.91 1268.69 1090.95 1270.25 1090.26 1271.79 1089.57 1273.33 1089.03 1275.1 1088.64 1277.1L1088.39 1278.41C1088.18 1279.52 1088.05 1280.36 1088 1280.95 1087.94 1281.53 1087.92 1282.1 1087.92 1282.66 1087.92 1284.29 1088.27 1285.47 1088.97 1286.21 1089.66 1286.95 1090.87 1287.32 1092.57 1287.32 1093.64 1287.32 1094.62 1287.11 1095.51 1286.7 1096.41 1286.28 1097.26 1285.67 1098.06 1284.88 1098.86 1284.09 1099.58 1283.13 1100.23 1282.01 1100.88 1280.88 1101.45 1279.58 1101.97 1278.09 1102.48 1276.6 1102.86 1275.07 1103.12 1273.49 1103.38 1271.92 1103.51 1270.45 1103.51 1269.07 1103.51 1266.88 1103.2 1265.25 1102.59 1264.18 1101.98 1263.11 1101 1262.57 1099.67 1262.57ZM1086.51 1258.88C1087.8 1258.88 1088.83 1259.31 1089.59 1260.16 1090.35 1261.02 1090.73 1262.15 1090.73 1263.57 1090.73 1264.74 1090.49 1265.97 1090.01 1267.26L1090.39 1267.38C1094.24 1261.74 1098.07 1258.91 1101.89 1258.91 1104.16 1258.91 1105.92 1259.78 1107.18 1261.51 1108.44 1263.24 1109.07 1265.67 1109.07 1268.82 1109.07 1272.26 1108.38 1275.64 1107 1278.96 1105.61 1282.28 1103.69 1284.92 1101.23 1286.87 1098.77 1288.82 1096.02 1289.79 1092.98 1289.79 1090.21 1289.79 1087.91 1289.19 1086.07 1287.98L1084.64 1294.82C1084.32 1296.3 1084.17 1297.52 1084.17 1298.48 1084.17 1299.39 1084.4 1300.04 1084.87 1300.43 1085.34 1300.82 1086.25 1301.07 1087.61 1301.2L1087.36 1302.73 1077.7 1302.73 1085.23 1269.57C1085.67 1267.65 1085.89 1266.08 1085.89 1264.85 1085.89 1264.02 1085.75 1263.41 1085.48 1263.04 1085.21 1262.66 1084.78 1262.48 1084.2 1262.48 1083.55 1262.48 1082.87 1262.74 1082.15 1263.27 1081.43 1263.81 1080.45 1264.77 1079.2 1266.16L1077.42 1264.41C1079.29 1262.46 1080.88 1261.04 1082.18 1260.18 1083.49 1259.32 1084.93 1258.88 1086.51 1258.88Z" fill-rule="evenodd"/><text fill="#000000" fill-opacity="0" font-family="Arial,Arial_MSFontService,sans-serif" font-size="43.8438" x="1077.42" y="1297.25">ğ‘</text><path d="M1166.92 1275.41 1205.42 1275.41 1205.42 1279.57 1166.92 1279.57ZM1166.92 1262.45 1205.42 1262.45 1205.42 1266.6 1166.92 1266.6Z" fill-rule="evenodd"/><text fill="#000000" fill-opacity="0" font-family="Arial,Arial_MSFontService,sans-serif" font-size="17.125" x="1166.92" y="1277.43">=</text><path d="M1245.82 1222.12 1247.22 1222.12C1247.18 1222.97 1247.16 1223.72 1247.15 1224.39 1247.13 1225.05 1247.12 1225.7 1247.11 1226.32 1247.1 1226.95 1247.1 1227.57 1247.1 1228.18L1247.1 1245.62C1247.1 1246.1 1247.12 1246.51 1247.15 1246.85 1247.18 1247.2 1247.23 1247.49 1247.3 1247.72 1247.36 1247.96 1247.46 1248.16 1247.57 1248.33 1247.69 1248.5 1247.82 1248.65 1247.97 1248.77 1248.16 1248.95 1248.4 1249.09 1248.71 1249.19 1249.01 1249.29 1249.4 1249.38 1249.88 1249.45 1250.35 1249.51 1250.92 1249.57 1251.59 1249.61 1252.25 1249.64 1253.05 1249.67 1253.99 1249.69L1253.99 1251.68 1235.79 1251.68 1235.79 1249.69C1236.69 1249.66 1237.45 1249.62 1238.08 1249.58 1238.71 1249.55 1239.24 1249.49 1239.69 1249.42 1240.13 1249.35 1240.49 1249.28 1240.75 1249.19 1241.02 1249.11 1241.26 1249.01 1241.45 1248.88 1241.67 1248.75 1241.85 1248.6 1242.01 1248.44 1242.16 1248.28 1242.28 1248.07 1242.37 1247.83 1242.46 1247.58 1242.54 1247.28 1242.59 1246.93 1242.64 1246.58 1242.67 1246.14 1242.67 1245.62L1242.67 1229.17C1242.67 1228.57 1242.56 1228.15 1242.33 1227.91 1242.1 1227.66 1241.77 1227.54 1241.34 1227.54 1240.87 1227.54 1240.16 1227.79 1239.23 1228.28 1238.3 1228.76 1237.09 1229.49 1235.6 1230.46 1235.4 1230.1 1235.22 1229.75 1235.05 1229.4 1234.88 1229.05 1234.71 1228.69 1234.52 1228.32 1236.42 1227.28 1238.3 1226.24 1240.16 1225.21 1242.02 1224.18 1243.9 1223.15 1245.82 1222.12Z" fill-rule="evenodd"/><text fill="#000000" fill-opacity="0" font-family="Arial,Arial_MSFontService,sans-serif" font-size="29.5586" x="1234.52" y="1247.99">1</text><path d="M1236.57 1298.13C1237.7 1298.13 1238.58 1298.5 1239.2 1299.24 1239.82 1299.98 1240.13 1300.96 1240.13 1302.16 1240.13 1302.47 1240.1 1302.79 1240.05 1303.13 1239.99 1303.46 1239.9 1303.79 1239.76 1304.09L1240.08 1304.21C1241.56 1302.17 1243.03 1300.65 1244.48 1299.64 1245.92 1298.63 1247.42 1298.13 1248.96 1298.13 1250.58 1298.13 1251.8 1298.56 1252.6 1299.43 1253.4 1300.31 1253.8 1301.53 1253.8 1303.11 1253.8 1303.58 1253.74 1304.24 1253.6 1305.08 1253.46 1305.92 1253.28 1306.84 1253.07 1307.83 1252.86 1308.83 1252.63 1309.85 1252.38 1310.9 1252.14 1311.94 1251.91 1312.91 1251.69 1313.8 1251.48 1314.69 1251.3 1315.44 1251.17 1316.07 1251.03 1316.7 1250.96 1317.09 1250.96 1317.24 1250.96 1317.82 1251.07 1318.24 1251.28 1318.5 1251.49 1318.76 1251.84 1318.89 1252.31 1318.89 1252.6 1318.89 1252.89 1318.84 1253.17 1318.73 1253.46 1318.63 1253.75 1318.46 1254.06 1318.23 1254.36 1318 1254.7 1317.7 1255.07 1317.35 1255.43 1316.99 1255.85 1316.55 1256.31 1316.05L1257.89 1317.56C1257.14 1318.33 1256.45 1318.99 1255.82 1319.54 1255.2 1320.09 1254.59 1320.54 1254 1320.9 1253.41 1321.26 1252.83 1321.53 1252.24 1321.71 1251.66 1321.88 1251.04 1321.97 1250.39 1321.97 1249.83 1321.97 1249.33 1321.86 1248.86 1321.65 1248.39 1321.43 1247.99 1321.14 1247.65 1320.76 1247.32 1320.39 1247.06 1319.95 1246.87 1319.43 1246.69 1318.92 1246.6 1318.36 1246.6 1317.75 1246.6 1317.13 1246.66 1316.42 1246.79 1315.6 1246.92 1314.78 1247.12 1313.88 1247.38 1312.9 1247.65 1311.91 1247.91 1310.96 1248.15 1310.05 1248.38 1309.14 1248.59 1308.3 1248.77 1307.52 1248.94 1306.75 1249.08 1306.06 1249.18 1305.46 1249.28 1304.85 1249.33 1304.35 1249.33 1303.95 1249.33 1303.01 1249.15 1302.31 1248.79 1301.87 1248.43 1301.42 1247.85 1301.2 1247.06 1301.2 1246.6 1301.2 1246.11 1301.32 1245.58 1301.56 1245.05 1301.79 1244.52 1302.12 1243.98 1302.54 1243.45 1302.96 1242.92 1303.46 1242.41 1304.03 1241.9 1304.61 1241.43 1305.22 1241 1305.87 1240.57 1306.52 1240.19 1307.2 1239.86 1307.91 1239.53 1308.62 1239.29 1309.33 1239.14 1310.04L1236.57 1321.56 1232.07 1321.56 1235.51 1306.59C1235.71 1305.8 1235.86 1305.09 1235.95 1304.46 1236.04 1303.83 1236.09 1303.32 1236.09 1302.92 1236.09 1301.8 1235.64 1301.25 1234.73 1301.25 1234.46 1301.25 1234.18 1301.3 1233.9 1301.42 1233.61 1301.53 1233.31 1301.71 1233 1301.93 1232.69 1302.16 1232.35 1302.45 1231.98 1302.81 1231.61 1303.16 1231.2 1303.57 1230.74 1304.05L1229.16 1302.55C1229.92 1301.77 1230.62 1301.1 1231.26 1300.55 1231.89 1299.99 1232.5 1299.53 1233.07 1299.17 1233.64 1298.81 1234.21 1298.55 1234.78 1298.38 1235.35 1298.21 1235.94 1298.13 1236.57 1298.13Z" fill-rule="evenodd"/><text fill="#000000" fill-opacity="0" font-family="Arial,Arial_MSFontService,sans-serif" font-size="23.8442" x="1229.16" y="1318.99">ğ‘›</text><path d="M1228.65 1269.28 1259.65 1269.28 1259.65 1273.28 1228.65 1273.28Z" fill-rule="evenodd"/><path d="M1279.9 1258.88C1281.21 1258.88 1282.25 1259.32 1283.01 1260.18 1283.77 1261.04 1284.15 1262.17 1284.15 1263.57 1284.15 1264.61 1283.95 1265.69 1283.55 1266.79L1283.96 1266.95C1286 1264.17 1287.97 1262.14 1289.85 1260.85 1291.74 1259.56 1293.65 1258.91 1295.58 1258.91 1297.11 1258.91 1298.38 1259.03 1299.4 1259.26L1297.9 1266.26 1294.68 1266.26C1294.55 1265.38 1294.38 1264.71 1294.15 1264.23 1293.92 1263.75 1293.65 1263.41 1293.33 1263.23 1293.02 1263.04 1292.63 1262.95 1292.15 1262.95 1291.4 1262.95 1290.58 1263.27 1289.69 1263.91 1288.81 1264.56 1287.81 1265.57 1286.71 1266.95 1285.61 1268.32 1284.73 1269.64 1284.07 1270.91 1283.41 1272.19 1282.87 1273.8 1282.43 1275.76L1279.46 1289.29 1274.05 1289.29 1278.58 1269.48C1278.88 1268.23 1279.06 1267.26 1279.15 1266.57 1279.23 1265.88 1279.27 1265.31 1279.27 1264.85 1279.27 1264.02 1279.14 1263.41 1278.87 1263.04 1278.6 1262.66 1278.17 1262.48 1277.58 1262.48 1276.94 1262.48 1276.26 1262.74 1275.54 1263.27 1274.82 1263.81 1273.83 1264.77 1272.58 1266.16L1270.8 1264.41C1272.72 1262.41 1274.32 1260.99 1275.62 1260.15 1276.91 1259.31 1278.33 1258.88 1279.9 1258.88Z" fill-rule="evenodd"/><text fill="#000000" fill-opacity="0" font-family="Arial,Arial_MSFontService,sans-serif" font-size="30.4062" x="1270.8" y="1285.49">ğ‘Ÿ</text><path d="M1365.5 1080.5C1365.5 1111.15 1361.36 1136 1356.25 1136L780.749 1136C775.641 1136 771.5 1160.85 771.5 1191.5 771.5 1160.85 767.359 1136 762.251 1136L186.749 1136C181.641 1136 177.5 1111.15 177.5 1080.5" stroke="#000000" stroke-width="6.875" stroke-miterlimit="8" fill="none" fill-rule="evenodd"/><path d="M2263.5 976.5C2263.5 1007.15 2259.36 1032 2254.25 1032L2011.23 1032C2006.12 1032 2001.98 1056.85 2001.98 1087.5 2001.98 1056.85 1997.83 1032 1992.73 1032L186.75 1032C181.641 1032 177.5 1007.15 177.5 976.5" stroke="#000000" stroke-width="6.875" stroke-miterlimit="8" fill="none" fill-rule="evenodd"/><text font-family="Arial,Arial_MSFontService,sans-serif" font-weight="400" font-size="64" transform="matrix(1 0 0 1 1595.91 1180)">Latency </text><path d="M1853.78 1134.86 1855.62 1134.86 1847.93 1169.45C1847.48 1171.51 1847.25 1173.06 1847.25 1174.08 1847.25 1174.91 1847.38 1175.51 1847.65 1175.89 1847.92 1176.26 1848.35 1176.45 1848.93 1176.45 1849.56 1176.45 1850.23 1176.2 1850.93 1175.69 1851.64 1175.18 1852.64 1174.2 1853.93 1172.76L1855.72 1174.51C1853.69 1176.64 1852.04 1178.09 1850.76 1178.87 1849.48 1179.66 1848.05 1180.05 1846.47 1180.05 1845.11 1180.05 1844.03 1179.55 1843.22 1178.56 1842.4 1177.57 1842 1176.31 1842 1174.76 1842 1173.37 1842.29 1171.35 1842.87 1168.7L1848.47 1143.67C1848.72 1142.57 1848.89 1141.69 1849 1141.03 1849.1 1140.37 1849.15 1139.76 1849.15 1139.2 1849.15 1138.58 1849.04 1138.1 1848.81 1137.78 1848.58 1137.46 1848.25 1137.22 1847.83 1137.08 1847.4 1136.93 1846.63 1136.83 1845.53 1136.76L1845.9 1135.14Z" fill-rule="evenodd"/><text fill="#000000" fill-opacity="0" font-family="Arial,Arial_MSFontService,sans-serif" font-size="45.1875" x="1842" y="1174.4">ğ‘™</text><path d="M1871.37 1169.2C1872.85 1169.2 1874.22 1169.29 1875.46 1169.48 1876.71 1169.66 1877.92 1169.93 1879.1 1170.28L1878 1175.47 1875.96 1175.47C1875.79 1174.09 1875.33 1173.07 1874.59 1172.41 1873.85 1171.76 1872.7 1171.43 1871.14 1171.43 1870.51 1171.43 1869.93 1171.51 1869.39 1171.68 1868.86 1171.85 1868.4 1172.08 1868.02 1172.38 1867.64 1172.68 1867.34 1173.03 1867.12 1173.45 1866.91 1173.86 1866.8 1174.31 1866.8 1174.8 1866.8 1175.24 1866.86 1175.65 1866.96 1176.02 1867.07 1176.38 1867.28 1176.74 1867.59 1177.09 1867.91 1177.45 1868.35 1177.81 1868.92 1178.2 1869.5 1178.58 1870.25 1179.01 1871.18 1179.5 1872.16 1180.04 1872.98 1180.55 1873.63 1181.04 1874.28 1181.53 1874.8 1182.03 1875.18 1182.53 1875.56 1183.04 1875.83 1183.58 1875.98 1184.15 1876.13 1184.73 1876.21 1185.36 1876.21 1186.07 1876.21 1187.15 1875.99 1188.13 1875.55 1188.99 1875.1 1189.86 1874.48 1190.59 1873.69 1191.19 1872.89 1191.78 1871.95 1192.24 1870.88 1192.56 1869.8 1192.88 1868.61 1193.04 1867.33 1193.04 1865.92 1193.04 1864.54 1192.95 1863.18 1192.77 1861.81 1192.59 1860.38 1192.27 1858.86 1191.83L1860.05 1186.6 1862.05 1186.6C1862.13 1188.02 1862.58 1189.09 1863.39 1189.8 1864.21 1190.51 1865.48 1190.86 1867.19 1190.86 1868.72 1190.86 1869.93 1190.54 1870.81 1189.88 1871.69 1189.22 1872.13 1188.3 1872.13 1187.12 1872.13 1186.59 1872.07 1186.12 1871.97 1185.73 1871.86 1185.34 1871.65 1184.97 1871.33 1184.62 1871.02 1184.27 1870.59 1183.91 1870.05 1183.53 1869.51 1183.16 1868.8 1182.72 1867.93 1182.24 1867.02 1181.73 1866.25 1181.23 1865.6 1180.74 1864.95 1180.25 1864.41 1179.76 1863.99 1179.25 1863.57 1178.75 1863.26 1178.22 1863.06 1177.67 1862.86 1177.12 1862.76 1176.53 1862.76 1175.9 1862.76 1174.94 1862.97 1174.05 1863.37 1173.23 1863.78 1172.41 1864.35 1171.7 1865.1 1171.1 1865.85 1170.51 1866.76 1170.04 1867.81 1169.7 1868.87 1169.37 1870.05 1169.2 1871.37 1169.2Z" fill-rule="evenodd"/><text fill="#000000" fill-opacity="0" font-family="Arial,Arial_MSFontService,sans-serif" font-size="23.8442" x="1858.86" y="1190.06">ğ‘ </text><path d="M1906.76 1165.67 1945.26 1165.67 1945.26 1169.83 1906.76 1169.83ZM1906.76 1152.7 1945.26 1152.7 1945.26 1156.86 1906.76 1156.86Z" fill-rule="evenodd"/><text fill="#000000" fill-opacity="0" font-family="Arial,Arial_MSFontService,sans-serif" font-size="17.125" x="1906.76" y="1167.69">=</text><path d="M1984.15 1134.86 1985.99 1134.86 1978.31 1169.45C1977.85 1171.51 1977.62 1173.06 1977.62 1174.08 1977.62 1174.91 1977.76 1175.51 1978.03 1175.89 1978.3 1176.26 1978.72 1176.45 1979.31 1176.45 1979.93 1176.45 1980.6 1176.2 1981.31 1175.69 1982.02 1175.18 1983.02 1174.2 1984.31 1172.76L1986.09 1174.51C1984.07 1176.64 1982.42 1178.09 1981.14 1178.87 1979.85 1179.66 1978.42 1180.05 1976.84 1180.05 1975.48 1180.05 1974.4 1179.55 1973.59 1178.56 1972.78 1177.57 1972.37 1176.31 1972.37 1174.76 1972.37 1173.37 1972.66 1171.35 1973.24 1168.7L1978.84 1143.67C1979.09 1142.57 1979.27 1141.69 1979.37 1141.03 1979.47 1140.37 1979.53 1139.76 1979.53 1139.2 1979.53 1138.58 1979.41 1138.1 1979.18 1137.78 1978.95 1137.46 1978.63 1137.22 1978.2 1137.08 1977.77 1136.93 1977.01 1136.83 1975.9 1136.76L1976.28 1135.14Z" fill-rule="evenodd"/><text fill="#000000" fill-opacity="0" font-family="Arial,Arial_MSFontService,sans-serif" font-size="45.1875" x="1972.37" y="1174.4">ğ‘™</text><path d="M1989.83 1169.68 1996.46 1169.68 1998.25 1188.32C1999.23 1186.8 2000.1 1185.43 2000.85 1184.21 2001.6 1182.98 2002.25 1181.86 2002.82 1180.84 2003.39 1179.81 2003.88 1178.86 2004.29 1177.99 2004.7 1177.12 2005.05 1176.28 2005.33 1175.49 2005.62 1174.69 2005.85 1173.91 2006.04 1173.15 2006.24 1172.38 2006.4 1171.59 2006.54 1170.78L2006.81 1169.68 2010.48 1169.68 2012.48 1188.32C2015.01 1184.87 2016.91 1181.86 2018.21 1179.29 2019.5 1176.71 2020.15 1174.65 2020.15 1173.1 2020.15 1172.43 2019.99 1171.95 2019.66 1171.68 2019.34 1171.4 2018.76 1171.23 2017.92 1171.15L2018.2 1169.68 2024.67 1169.68 2025.47 1171.01C2024.83 1172.68 2024.12 1174.33 2023.35 1175.95 2022.58 1177.57 2021.67 1179.26 2020.63 1181.01 2019.59 1182.76 2018.37 1184.61 2016.98 1186.57 2015.59 1188.53 2013.95 1190.67 2012.07 1193L2009.13 1193 2007.27 1177.07C2006.26 1179.4 2004.99 1181.88 2003.45 1184.51 2001.91 1187.14 2000.1 1189.97 1998.02 1193L1994.67 1193 1992.52 1175.67C1992.39 1174.75 1992.29 1174.02 1992.19 1173.46 1992.1 1172.9 1991.96 1172.46 1991.77 1172.15 1991.58 1171.84 1991.31 1171.61 1990.96 1171.47 1990.6 1171.33 1990.11 1171.23 1989.49 1171.15Z" fill-rule="evenodd"/><text fill="#000000" fill-opacity="0" font-family="Arial,Arial_MSFontService,sans-serif" font-size="23.3164" x="1989.49" y="1190.08">ğ‘¤</text><path d="M2052.83 1165.67 2091.33 1165.67 2091.33 1169.83 2052.83 1169.83ZM2052.83 1152.7 2091.33 1152.7 2091.33 1156.86 2052.83 1156.86Z" fill-rule="evenodd"/><text fill="#000000" fill-opacity="0" font-family="Arial,Arial_MSFontService,sans-serif" font-size="17.125" x="2052.83" y="1167.69">=</text><path d="M2131.73 1112.38 2133.13 1112.38C2133.1 1113.22 2133.07 1113.98 2133.06 1114.64 2133.04 1115.31 2133.03 1115.95 2133.02 1116.58 2133.02 1117.21 2133.01 1117.83 2133.01 1118.44L2133.01 1135.88C2133.01 1136.36 2133.03 1136.76 2133.06 1137.11 2133.09 1137.45 2133.14 1137.74 2133.21 1137.98 2133.28 1138.22 2133.37 1138.42 2133.48 1138.59 2133.6 1138.76 2133.73 1138.9 2133.88 1139.02 2134.07 1139.21 2134.31 1139.35 2134.62 1139.45 2134.92 1139.55 2135.31 1139.63 2135.79 1139.7 2136.26 1139.77 2136.83 1139.82 2137.5 1139.86 2138.16 1139.9 2138.96 1139.93 2139.9 1139.94L2139.9 1141.94 2121.7 1141.94 2121.7 1139.94C2122.6 1139.91 2123.37 1139.88 2123.99 1139.84 2124.62 1139.8 2125.16 1139.75 2125.6 1139.68 2126.04 1139.61 2126.4 1139.53 2126.67 1139.45 2126.93 1139.37 2127.17 1139.26 2127.37 1139.14 2127.58 1139 2127.76 1138.85 2127.92 1138.69 2128.07 1138.53 2128.19 1138.33 2128.28 1138.08 2128.38 1137.84 2128.45 1137.54 2128.5 1137.19 2128.56 1136.84 2128.58 1136.4 2128.58 1135.88L2128.58 1119.43C2128.58 1118.83 2128.47 1118.41 2128.24 1118.16 2128.01 1117.92 2127.68 1117.8 2127.25 1117.8 2126.78 1117.8 2126.07 1118.04 2125.14 1118.53 2124.21 1119.02 2123 1119.75 2121.51 1120.71 2121.32 1120.36 2121.13 1120.01 2120.96 1119.66 2120.8 1119.3 2120.62 1118.94 2120.44 1118.58 2122.33 1117.54 2124.21 1116.5 2126.07 1115.47 2127.93 1114.43 2129.81 1113.41 2131.73 1112.38Z" fill-rule="evenodd"/><text fill="#000000" fill-opacity="0" font-family="Arial,Arial_MSFontService,sans-serif" font-size="29.5586" x="2120.44" y="1138.24">1</text><path d="M2122.48 1188.38C2123.61 1188.38 2124.49 1188.75 2125.11 1189.49 2125.73 1190.24 2126.04 1191.21 2126.04 1192.42 2126.04 1192.73 2126.01 1193.05 2125.96 1193.38 2125.91 1193.72 2125.81 1194.04 2125.67 1194.35L2125.99 1194.46C2127.48 1192.43 2128.94 1190.91 2130.39 1189.9 2131.83 1188.89 2133.33 1188.38 2134.87 1188.38 2136.5 1188.38 2137.71 1188.82 2138.51 1189.69 2139.31 1190.56 2139.72 1191.79 2139.72 1193.36 2139.72 1193.84 2139.65 1194.49 2139.51 1195.33 2139.37 1196.18 2139.2 1197.09 2138.98 1198.09 2138.77 1199.08 2138.54 1200.1 2138.29 1201.15 2138.05 1202.2 2137.82 1203.17 2137.61 1204.06 2137.39 1204.94 2137.22 1205.7 2137.08 1206.33 2136.94 1206.95 2136.87 1207.34 2136.87 1207.5 2136.87 1208.08 2136.98 1208.5 2137.19 1208.76 2137.41 1209.02 2137.75 1209.15 2138.22 1209.15 2138.52 1209.15 2138.8 1209.1 2139.09 1208.99 2139.37 1208.88 2139.66 1208.71 2139.97 1208.48 2140.27 1208.26 2140.61 1207.96 2140.98 1207.6 2141.35 1207.24 2141.76 1206.81 2142.22 1206.3L2143.8 1207.82C2143.05 1208.58 2142.36 1209.24 2141.74 1209.79 2141.11 1210.34 2140.5 1210.8 2139.91 1211.16 2139.32 1211.52 2138.74 1211.79 2138.16 1211.96 2137.57 1212.14 2136.96 1212.23 2136.3 1212.23 2135.75 1212.23 2135.24 1212.12 2134.77 1211.9 2134.3 1211.69 2133.9 1211.4 2133.57 1211.02 2133.23 1210.65 2132.97 1210.2 2132.79 1209.69 2132.6 1209.18 2132.51 1208.61 2132.51 1208 2132.51 1207.39 2132.58 1206.68 2132.71 1205.86 2132.84 1205.04 2133.03 1204.14 2133.29 1203.16 2133.57 1202.17 2133.82 1201.21 2134.06 1200.3 2134.3 1199.39 2134.5 1198.55 2134.68 1197.78 2134.86 1197.01 2134.99 1196.32 2135.09 1195.71 2135.19 1195.11 2135.24 1194.61 2135.24 1194.21 2135.24 1193.26 2135.06 1192.57 2134.7 1192.12 2134.34 1191.68 2133.77 1191.46 2132.97 1191.46 2132.51 1191.46 2132.02 1191.57 2131.49 1191.81 2130.96 1192.05 2130.43 1192.38 2129.89 1192.8 2129.36 1193.22 2128.83 1193.72 2128.32 1194.29 2127.81 1194.86 2127.34 1195.48 2126.91 1196.13 2126.48 1196.78 2126.1 1197.46 2125.77 1198.17 2125.45 1198.88 2125.21 1199.59 2125.05 1200.29L2122.48 1211.81 2117.98 1211.81 2121.43 1196.85C2121.62 1196.05 2121.77 1195.34 2121.86 1194.72 2121.95 1194.09 2122 1193.58 2122 1193.18 2122 1192.06 2121.55 1191.5 2120.65 1191.5 2120.37 1191.5 2120.09 1191.56 2119.81 1191.67 2119.53 1191.79 2119.23 1191.96 2118.91 1192.19 2118.6 1192.42 2118.26 1192.71 2117.89 1193.06 2117.52 1193.41 2117.11 1193.83 2116.65 1194.3L2115.07 1192.81C2115.83 1192.03 2116.53 1191.36 2117.17 1190.8 2117.8 1190.24 2118.41 1189.78 2118.98 1189.43 2119.56 1189.07 2120.13 1188.8 2120.69 1188.63 2121.26 1188.47 2121.85 1188.38 2122.48 1188.38Z" fill-rule="evenodd"/><text fill="#000000" fill-opacity="0" font-family="Arial,Arial_MSFontService,sans-serif" font-size="23.8442" x="2115.07" y="1209.24">ğ‘›</text><path d="M2113.91 1159.55 2144.91 1159.55 2144.91 1163.55 2113.91 1163.55Z" fill-rule="evenodd"/><path d="M2165.81 1149.14C2167.12 1149.14 2168.16 1149.57 2168.92 1150.44 2169.68 1151.3 2170.06 1152.43 2170.06 1153.83 2170.06 1154.87 2169.86 1155.94 2169.47 1157.05L2169.87 1157.2C2171.91 1154.43 2173.88 1152.4 2175.76 1151.11 2177.65 1149.82 2179.56 1149.17 2181.5 1149.17 2183.02 1149.17 2184.29 1149.29 2185.31 1149.51L2183.81 1156.51 2180.59 1156.51C2180.47 1155.64 2180.29 1154.96 2180.06 1154.48 2179.83 1154 2179.56 1153.67 2179.25 1153.48 2178.93 1153.3 2178.54 1153.2 2178.06 1153.2 2177.31 1153.2 2176.49 1153.52 2175.61 1154.17 2174.72 1154.82 2173.73 1155.83 2172.62 1157.2 2171.52 1158.58 2170.64 1159.9 2169.98 1161.17 2169.33 1162.44 2168.78 1164.06 2168.34 1166.01L2165.37 1179.55 2159.97 1179.55 2164.5 1159.73C2164.79 1158.48 2164.98 1157.51 2165.06 1156.83 2165.14 1156.14 2165.18 1155.57 2165.18 1155.11 2165.18 1154.27 2165.05 1153.67 2164.78 1153.3 2164.51 1152.92 2164.08 1152.73 2163.5 1152.73 2162.85 1152.73 2162.17 1153 2161.45 1153.53 2160.73 1154.06 2159.75 1155.02 2158.5 1156.42L2156.72 1154.67C2158.63 1152.67 2160.24 1151.25 2161.53 1150.41 2162.82 1149.56 2164.25 1149.14 2165.81 1149.14Z" fill-rule="evenodd"/><text fill="#000000" fill-opacity="0" font-family="Arial,Arial_MSFontService,sans-serif" font-size="30.4062" x="2156.72" y="1175.74">ğ‘Ÿ</text><path d="M2223.72 1141.17 2228.16 1141.17 2228.16 1159.17 2245.19 1159.17 2245.19 1163.33 2228.16 1163.33 2228.16 1181.33 2223.72 1181.33 2223.72 1163.33 2206.69 1163.33 2206.69 1159.17 2223.72 1159.17Z" fill-rule="evenodd"/><text fill="#000000" fill-opacity="0" font-family="Arial,Arial_MSFontService,sans-serif" font-size="40.1562" x="2206.69" y="1176.31">+</text><path d="M2276.63 1141.95 2280.95 1141.95 2279.23 1149.67 2288.73 1149.67 2288.04 1152.83 2278.54 1152.83 2275.76 1164.95C2275.22 1167.31 2274.87 1169 2274.73 1170.03 2274.58 1171.06 2274.51 1171.89 2274.51 1172.51 2274.51 1175.1 2275.58 1176.39 2277.73 1176.39 2278.65 1176.39 2279.62 1176.04 2280.65 1175.34 2281.68 1174.64 2282.91 1173.45 2284.32 1171.76L2286.13 1173.64C2284.32 1175.83 2282.58 1177.44 2280.9 1178.48 2279.22 1179.52 2277.47 1180.05 2275.63 1180.05 2271.28 1180.05 2269.1 1177.85 2269.1 1173.45 2269.1 1172.06 2269.28 1170.59 2269.63 1169.05L2273.32 1152.83 2268.07 1152.83 2268.54 1150.67C2269.77 1150.65 2270.7 1150.56 2271.34 1150.39 2271.97 1150.22 2272.5 1149.99 2272.93 1149.7 2273.36 1149.41 2273.75 1148.99 2274.1 1148.45 2274.46 1147.91 2274.8 1147.22 2275.13 1146.37 2275.47 1145.53 2275.97 1144.06 2276.63 1141.95Z" fill-rule="evenodd"/><text fill="#000000" fill-opacity="0" font-family="Arial,Arial_MSFontService,sans-serif" font-size="38.0938" x="2268.07" y="1175.28">ğ‘¡</text><path d="M2327.12 1141.17 2331.56 1141.17 2331.56 1159.17 2348.59 1159.17 2348.59 1163.33 2331.56 1163.33 2331.56 1181.33 2327.12 1181.33 2327.12 1163.33 2310.09 1163.33 2310.09 1159.17 2327.12 1159.17Z" fill-rule="evenodd"/><text fill="#000000" fill-opacity="0" font-family="Arial,Arial_MSFontService,sans-serif" font-size="40.1562" x="2310.09" y="1176.31">+</text><path d="M2390.82 1152.83C2389.75 1152.83 2388.71 1153.19 2387.68 1153.91 2386.64 1154.62 2385.51 1155.77 2384.28 1157.36 2383.06 1158.94 2382.1 1160.5 2381.41 1162.05 2380.72 1163.59 2380.18 1165.36 2379.78 1167.36L2379.53 1168.67C2379.33 1169.77 2379.2 1170.62 2379.14 1171.2 2379.09 1171.79 2379.07 1172.36 2379.07 1172.92 2379.07 1174.55 2379.41 1175.73 2380.11 1176.47 2380.81 1177.21 2382.01 1177.58 2383.72 1177.58 2384.78 1177.58 2385.76 1177.37 2386.66 1176.95 2387.56 1176.54 2388.4 1175.93 2389.21 1175.14 2390.01 1174.35 2390.73 1173.39 2391.38 1172.26 2392.02 1171.14 2392.6 1169.83 2393.11 1168.34 2393.62 1166.85 2394.01 1165.32 2394.27 1163.75 2394.53 1162.18 2394.66 1160.7 2394.66 1159.33 2394.66 1157.14 2394.35 1155.51 2393.74 1154.44 2393.12 1153.36 2392.15 1152.83 2390.82 1152.83ZM2377.66 1149.14C2378.95 1149.14 2379.98 1149.57 2380.74 1150.42 2381.5 1151.27 2381.88 1152.41 2381.88 1153.83 2381.88 1154.99 2381.64 1156.22 2381.16 1157.51L2381.53 1157.64C2385.39 1151.99 2389.22 1149.17 2393.03 1149.17 2395.31 1149.17 2397.07 1150.04 2398.33 1151.76 2399.59 1153.49 2400.22 1155.93 2400.22 1159.08 2400.22 1162.51 2399.53 1165.89 2398.14 1169.22 2396.76 1172.54 2394.84 1175.18 2392.38 1177.12 2389.92 1179.07 2387.17 1180.05 2384.13 1180.05 2381.36 1180.05 2379.06 1179.44 2377.22 1178.23L2375.78 1185.08C2375.47 1186.56 2375.32 1187.77 2375.32 1188.73 2375.32 1189.65 2375.55 1190.3 2376.02 1190.69 2376.49 1191.07 2377.4 1191.33 2378.75 1191.45L2378.5 1192.98 2368.85 1192.98 2376.38 1159.83C2376.82 1157.91 2377.03 1156.34 2377.03 1155.11 2377.03 1154.27 2376.9 1153.67 2376.63 1153.3 2376.36 1152.92 2375.93 1152.73 2375.35 1152.73 2374.7 1152.73 2374.02 1153 2373.3 1153.53 2372.58 1154.06 2371.6 1155.02 2370.35 1156.42L2368.57 1154.67C2370.44 1152.71 2372.03 1151.3 2373.33 1150.44 2374.63 1149.57 2376.08 1149.14 2377.66 1149.14Z" fill-rule="evenodd"/><text fill="#000000" fill-opacity="0" font-family="Arial,Arial_MSFontService,sans-serif" font-size="43.8438" x="2368.57" y="1187.5">ğ‘</text></g></svg>