<svg width="4332" height="1226" xmlns="http://www.w3.org/2000/svg" xmlns:xlink="http://www.w3.org/1999/xlink" xml:space="preserve" overflow="hidden"><defs><linearGradient x1="2205" y1="46.4999" x2="2205" y2="1267.5" gradientUnits="userSpaceOnUse" spreadMethod="reflect" id="fill0"><stop offset="0" stop-color="#9B9B9B"/><stop offset="0.5" stop-color="#8E8E8E"/><stop offset="1" stop-color="#797979"/></linearGradient></defs><g transform="translate(-39 -44)"><rect x="41.5001" y="46.4999" width="4327" height="1221" stroke="#000000" stroke-width="4.58333" stroke-miterlimit="8" fill="url(#fill0)"/><rect x="61.5" y="82.5" width="1117" height="122" stroke="#156082" stroke-width="6.875" stroke-miterlimit="8" fill="#FFFFFF"/><text font-family="Arial,Arial_MSFontService,sans-serif" font-weight="400" font-size="64" transform="matrix(1 0 0 1 273.163 167)">device 0, render frame n</text><rect x="61.5" y="222.5" width="1117" height="122" stroke="#156082" stroke-width="6.875" stroke-miterlimit="8" fill="#FFFFFF"/><text font-family="Arial,Arial_MSFontService,sans-serif" font-weight="400" font-size="64" transform="matrix(1 0 0 1 273.163 306)">device 1, render frame n</text><rect x="1203.5" y="641.5" width="852" height="121" stroke="#E97132" stroke-width="6.875" stroke-miterlimit="8" fill="#FFFFFF"/><text font-family="Arial,Arial_MSFontService,sans-serif" font-weight="400" font-size="64" transform="matrix(1 0 0 1 1280.49 725)">transfer frame n to dev 0</text><rect x="2082.5" y="641.5" width="40.0002" height="121" stroke="#196B24" stroke-width="6.875" stroke-miterlimit="8" fill="#FFFFFF"/><text font-family="Arial,Arial_MSFontService,sans-serif" font-weight="400" font-size="64" transform="matrix(1 0 0 1 1875.88 844)">present frame n</text><rect x="61.5" y="362.5" width="1117" height="122" stroke="#156082" stroke-width="6.875" stroke-miterlimit="8" fill="#FFFFFF"/><text font-family="Arial,Arial_MSFontService,sans-serif" font-weight="400" font-size="64" transform="matrix(1 0 0 1 273.163 446)">device 2, render frame n</text><rect x="61.5" y="501.5" width="1117" height="122" stroke="#156082" stroke-width="6.875" stroke-miterlimit="8" fill="#FFFFFF"/><text font-family="Arial,Arial_MSFontService,sans-serif" font-weight="400" font-size="64" transform="matrix(1 0 0 1 273.163 586)">device 3, render frame n</text><rect x="3292.5" y="644.5" width="852" height="121" stroke="#E97132" stroke-width="6.875" stroke-miterlimit="8" fill="#FFFFFF"/><text font-family="Arial,Arial_MSFontService,sans-serif" font-weight="400" font-size="64" transform="matrix(1 0 0 1 3333.09 728)">transfer frame n+1 to dev 0</text><rect x="4171.5" y="644.5" width="40" height="121" stroke="#196B24" stroke-width="6.875" stroke-miterlimit="8" fill="#FFFFFF"/><text font-family="Arial,Arial_MSFontService,sans-serif" font-weight="400" font-size="64" transform="matrix(1 0 0 1 3809.23 844)">present frame n+1</text><rect x="2160.5" y="82.5" width="1118" height="122" stroke="#156082" stroke-width="6.875" stroke-miterlimit="8" fill="#FFFFFF"/><text font-family="Arial,Arial_MSFontService,sans-serif" font-weight="400" font-size="64" transform="matrix(1 0 0 1 2336.54 167)">device 0, render frame n+1</text><rect x="2160.5" y="222.5" width="1118" height="122" stroke="#156082" stroke-width="6.875" stroke-miterlimit="8" fill="#FFFFFF"/><text font-family="Arial,Arial_MSFontService,sans-serif" font-weight="400" font-size="64" transform="matrix(1 0 0 1 2336.54 306)">device 1, render frame n+1</text><rect x="2160.5" y="362.5" width="1118" height="122" stroke="#156082" stroke-width="6.875" stroke-miterlimit="8" fill="#FFFFFF"/><text font-family="Arial,Arial_MSFontService,sans-serif" font-weight="400" font-size="64" transform="matrix(1 0 0 1 2336.54 446)">device 2, render frame n+1</text><rect x="2160.5" y="501.5" width="1118" height="122" stroke="#156082" stroke-width="6.875" stroke-miterlimit="8" fill="#FFFFFF"/><text font-family="Arial,Arial_MSFontService,sans-serif" font-weight="400" font-size="64" transform="matrix(1 0 0 1 2336.54 586)">device 3, render frame n+1</text><text font-family="Arial,Arial_MSFontService,sans-serif" font-weight="400" font-size="64" transform="matrix(1 0 0 1 642.411 1077)">Frame time </text><path d="M1012.73 1031.82C1014.78 1031.82 1016.54 1031.99 1018.01 1032.32L1016.8 1037.63 1014.05 1037.63C1013.75 1036.45 1013.37 1035.59 1012.91 1035.07 1012.44 1034.55 1011.74 1034.29 1010.83 1034.29 1009.64 1034.29 1008.63 1034.62 1007.81 1035.27 1006.99 1035.93 1006.29 1036.9 1005.7 1038.2 1005.12 1039.49 1004.58 1041.23 1004.08 1043.41L1003.3 1046.82 1011.33 1046.82 1010.64 1049.98 1002.58 1049.98 996.765 1077.23C995.807 1081.75 994.338 1085.12 992.359 1087.34 990.38 1089.56 987.89 1090.66 984.89 1090.66 984.015 1090.66 983.327 1090.61 982.827 1090.51L983.359 1087.76C983.567 1087.82 984.057 1087.85 984.827 1087.85 985.765 1087.85 986.567 1087.61 987.234 1087.13 987.9 1086.65 988.52 1085.82 989.093 1084.63 989.666 1083.45 990.192 1081.8 990.671 1079.7L997.39 1049.98 992.109 1049.98 992.577 1047.82C993.973 1047.74 994.979 1047.62 995.593 1047.48 996.208 1047.33 996.687 1047.11 997.031 1046.82 997.374 1046.53 997.666 1046.15 997.906 1045.68 998.145 1045.21 998.452 1044.35 998.827 1043.1 999.932 1039.35 1001.63 1036.53 1003.94 1034.65 1006.24 1032.76 1009.17 1031.82 1012.73 1031.82Z" fill-rule="evenodd"/><text fill="#000000" fill-opacity="0" font-family="Arial,Arial_MSFontService,sans-serif" font-size="58.8438" x="982.827" y="1083.31">ğ‘“</text><path d="M1008 1066.83 1014.64 1066.83 1016.43 1085.47C1017.4 1083.95 1018.27 1082.58 1019.02 1081.36 1019.77 1080.14 1020.43 1079.01 1020.99 1077.99 1021.56 1076.96 1022.05 1076.01 1022.46 1075.14 1022.87 1074.27 1023.22 1073.43 1023.51 1072.64 1023.79 1071.84 1024.03 1071.06 1024.22 1070.3 1024.41 1069.53 1024.57 1068.74 1024.71 1067.93L1024.99 1066.83 1028.66 1066.83 1030.65 1085.47C1033.18 1082.02 1035.09 1079.01 1036.38 1076.44 1037.67 1073.86 1038.32 1071.8 1038.32 1070.25 1038.32 1069.58 1038.16 1069.1 1037.84 1068.83 1037.52 1068.55 1036.93 1068.38 1036.09 1068.3L1036.37 1066.83 1042.84 1066.83 1043.64 1068.16C1043 1069.83 1042.29 1071.48 1041.52 1073.1 1040.75 1074.72 1039.84 1076.41 1038.8 1078.16 1037.76 1079.91 1036.54 1081.76 1035.15 1083.72 1033.76 1085.68 1032.12 1087.82 1030.24 1090.15L1027.3 1090.15 1025.44 1074.22C1024.43 1076.55 1023.16 1079.03 1021.62 1081.66 1020.09 1084.29 1018.28 1087.12 1016.2 1090.15L1012.85 1090.15 1010.69 1072.82C1010.57 1071.9 1010.46 1071.17 1010.37 1070.61 1010.27 1070.05 1010.13 1069.61 1009.94 1069.3 1009.75 1068.99 1009.48 1068.76 1009.13 1068.62 1008.78 1068.48 1008.29 1068.38 1007.66 1068.3Z" fill-rule="evenodd"/><text fill="#000000" fill-opacity="0" font-family="Arial,Arial_MSFontService,sans-serif" font-size="23.3164" x="1007.66" y="1087.23">ğ‘¤</text><path d="M1071 1062.82 1109.5 1062.82 1109.5 1066.98 1071 1066.98ZM1071 1049.85 1109.5 1049.85 1109.5 1054.01 1071 1054.01Z" fill-rule="evenodd"/><text fill="#000000" fill-opacity="0" font-family="Arial,Arial_MSFontService,sans-serif" font-size="17.125" x="1071" y="1064.84">=</text><path d="M1149.9 1009.53 1151.3 1009.53C1151.27 1010.37 1151.25 1011.13 1151.23 1011.79 1151.22 1012.46 1151.2 1013.1 1151.2 1013.73 1151.19 1014.36 1151.18 1014.98 1151.18 1015.59L1151.18 1033.03C1151.18 1033.51 1151.2 1033.91 1151.23 1034.26 1151.26 1034.6 1151.31 1034.89 1151.38 1035.13 1151.45 1035.37 1151.54 1035.57 1151.66 1035.74 1151.77 1035.91 1151.9 1036.05 1152.06 1036.18 1152.24 1036.36 1152.48 1036.5 1152.79 1036.6 1153.1 1036.7 1153.49 1036.78 1153.96 1036.85 1154.44 1036.92 1155.01 1036.97 1155.67 1037.01 1156.34 1037.05 1157.14 1037.08 1158.07 1037.09L1158.07 1039.09 1139.87 1039.09 1139.87 1037.09C1140.77 1037.06 1141.54 1037.03 1142.17 1036.99 1142.79 1036.95 1143.33 1036.9 1143.77 1036.83 1144.22 1036.76 1144.57 1036.68 1144.84 1036.6 1145.11 1036.52 1145.34 1036.41 1145.54 1036.29 1145.75 1036.15 1145.94 1036 1146.09 1035.84 1146.24 1035.68 1146.37 1035.48 1146.46 1035.23 1146.55 1034.99 1146.62 1034.69 1146.68 1034.34 1146.73 1033.99 1146.76 1033.55 1146.76 1033.03L1146.76 1016.58C1146.76 1015.98 1146.64 1015.56 1146.41 1015.31 1146.18 1015.07 1145.85 1014.95 1145.42 1014.95 1144.95 1014.95 1144.25 1015.19 1143.31 1015.68 1142.38 1016.17 1141.17 1016.9 1139.69 1017.86 1139.49 1017.51 1139.3 1017.16 1139.14 1016.81 1138.97 1016.45 1138.79 1016.09 1138.61 1015.73 1140.51 1014.69 1142.38 1013.65 1144.24 1012.62 1146.1 1011.59 1147.99 1010.56 1149.9 1009.53Z" fill-rule="evenodd"/><text fill="#000000" fill-opacity="0" font-family="Arial,Arial_MSFontService,sans-serif" font-size="29.5586" x="1138.61" y="1035.4">1</text><path d="M1140.65 1085.53C1141.79 1085.53 1142.66 1085.9 1143.28 1086.64 1143.9 1087.39 1144.21 1088.36 1144.21 1089.57 1144.21 1089.88 1144.18 1090.2 1144.13 1090.53 1144.08 1090.87 1143.98 1091.19 1143.84 1091.5L1144.17 1091.61C1145.65 1089.58 1147.11 1088.06 1148.56 1087.05 1150.01 1086.04 1151.5 1085.53 1153.05 1085.53 1154.67 1085.53 1155.88 1085.97 1156.68 1086.84 1157.49 1087.71 1157.89 1088.94 1157.89 1090.51 1157.89 1090.99 1157.82 1091.64 1157.68 1092.49 1157.54 1093.33 1157.37 1094.24 1157.15 1095.24 1156.94 1096.23 1156.71 1097.25 1156.47 1098.3 1156.22 1099.35 1155.99 1100.32 1155.78 1101.21 1155.56 1102.09 1155.39 1102.85 1155.25 1103.48 1155.11 1104.11 1155.04 1104.5 1155.04 1104.65 1155.04 1105.23 1155.15 1105.65 1155.36 1105.91 1155.58 1106.17 1155.92 1106.3 1156.4 1106.3 1156.69 1106.3 1156.97 1106.25 1157.26 1106.14 1157.54 1106.03 1157.84 1105.86 1158.14 1105.64 1158.45 1105.41 1158.78 1105.11 1159.15 1104.75 1159.52 1104.39 1159.93 1103.96 1160.39 1103.45L1161.97 1104.97C1161.22 1105.73 1160.54 1106.39 1159.91 1106.94 1159.28 1107.49 1158.67 1107.95 1158.08 1108.31 1157.49 1108.67 1156.91 1108.94 1156.33 1109.11 1155.75 1109.29 1155.13 1109.38 1154.47 1109.38 1153.92 1109.38 1153.41 1109.27 1152.94 1109.05 1152.48 1108.84 1152.07 1108.55 1151.74 1108.17 1151.4 1107.8 1151.14 1107.35 1150.96 1106.84 1150.77 1106.33 1150.68 1105.77 1150.68 1105.15 1150.68 1104.54 1150.75 1103.83 1150.88 1103.01 1151.01 1102.19 1151.2 1101.29 1151.46 1100.31 1151.74 1099.32 1151.99 1098.36 1152.23 1097.45 1152.47 1096.54 1152.68 1095.7 1152.85 1094.93 1153.03 1094.16 1153.17 1093.47 1153.26 1092.86 1153.36 1092.26 1153.41 1091.76 1153.41 1091.36 1153.41 1090.41 1153.23 1089.72 1152.87 1089.27 1152.51 1088.83 1151.94 1088.61 1151.14 1088.61 1150.68 1088.61 1150.19 1088.73 1149.66 1088.96 1149.13 1089.2 1148.6 1089.53 1148.07 1089.95 1147.53 1090.37 1147.01 1090.87 1146.49 1091.44 1145.98 1092.01 1145.51 1092.63 1145.08 1093.28 1144.65 1093.93 1144.28 1094.61 1143.95 1095.32 1143.62 1096.03 1143.38 1096.74 1143.22 1097.44L1140.65 1108.96 1136.16 1108.96 1139.6 1094C1139.8 1093.2 1139.94 1092.49 1140.03 1091.87 1140.13 1091.24 1140.17 1090.73 1140.17 1090.33 1140.17 1089.21 1139.72 1088.65 1138.82 1088.65 1138.54 1088.65 1138.26 1088.71 1137.98 1088.82 1137.7 1088.94 1137.4 1089.11 1137.09 1089.34 1136.77 1089.57 1136.43 1089.86 1136.06 1090.21 1135.7 1090.57 1135.28 1090.98 1134.82 1091.45L1133.24 1089.96C1134.01 1089.18 1134.71 1088.51 1135.34 1087.95 1135.98 1087.39 1136.58 1086.94 1137.15 1086.58 1137.73 1086.22 1138.3 1085.95 1138.86 1085.78 1139.43 1085.62 1140.03 1085.53 1140.65 1085.53Z" fill-rule="evenodd"/><text fill="#000000" fill-opacity="0" font-family="Arial,Arial_MSFontService,sans-serif" font-size="23.8442" x="1133.24" y="1106.4">ğ‘›</text><path d="M1132.41 1056.7 1163.41 1056.7 1163.41 1060.7 1132.41 1060.7Z" fill-rule="evenodd"/><path d="M1183.98 1046.29C1185.29 1046.29 1186.33 1046.72 1187.09 1047.59 1187.85 1048.45 1188.23 1049.58 1188.23 1050.98 1188.23 1052.02 1188.03 1053.09 1187.64 1054.2L1188.04 1054.35C1190.09 1051.58 1192.05 1049.55 1193.93 1048.26 1195.82 1046.97 1197.73 1046.32 1199.67 1046.32 1201.19 1046.32 1202.46 1046.44 1203.48 1046.66L1201.98 1053.66 1198.76 1053.66C1198.64 1052.79 1198.46 1052.11 1198.23 1051.63 1198 1051.15 1197.73 1050.82 1197.42 1050.63 1197.11 1050.45 1196.71 1050.35 1196.23 1050.35 1195.48 1050.35 1194.66 1050.68 1193.78 1051.32 1192.89 1051.97 1191.9 1052.98 1190.79 1054.35 1189.69 1055.73 1188.81 1057.05 1188.15 1058.32 1187.5 1059.59 1186.95 1061.21 1186.51 1063.16L1183.54 1076.7 1178.14 1076.7 1182.67 1056.88C1182.96 1055.63 1183.15 1054.66 1183.23 1053.98 1183.31 1053.29 1183.36 1052.72 1183.36 1052.26 1183.36 1051.43 1183.22 1050.82 1182.95 1050.45 1182.68 1050.07 1182.25 1049.88 1181.67 1049.88 1181.02 1049.88 1180.34 1050.15 1179.62 1050.68 1178.9 1051.21 1177.92 1052.18 1176.67 1053.57L1174.89 1051.82C1176.8 1049.82 1178.41 1048.4 1179.7 1047.56 1180.99 1046.71 1182.42 1046.29 1183.98 1046.29Z" fill-rule="evenodd"/><text fill="#000000" fill-opacity="0" font-family="Arial,Arial_MSFontService,sans-serif" font-size="30.4062" x="1174.89" y="1072.9">ğ‘Ÿ</text><path d="M1241.9 1038.32 1246.33 1038.32 1246.33 1056.32 1263.36 1056.32 1263.36 1060.48 1246.33 1060.48 1246.33 1078.48 1241.9 1078.48 1241.9 1060.48 1224.86 1060.48 1224.86 1056.32 1241.9 1056.32Z" fill-rule="evenodd"/><text fill="#000000" fill-opacity="0" font-family="Arial,Arial_MSFontService,sans-serif" font-size="40.1562" x="1224.86" y="1073.46">+</text><path d="M1294.81 1039.1 1299.12 1039.1 1297.4 1046.82 1306.9 1046.82 1306.21 1049.98 1296.71 1049.98 1293.93 1062.1C1293.39 1064.46 1293.05 1066.15 1292.9 1067.18 1292.75 1068.21 1292.68 1069.04 1292.68 1069.66 1292.68 1072.25 1293.75 1073.54 1295.9 1073.54 1296.82 1073.54 1297.79 1073.19 1298.82 1072.49 1299.85 1071.8 1301.08 1070.6 1302.49 1068.91L1304.31 1070.79C1302.49 1072.98 1300.75 1074.59 1299.07 1075.63 1297.4 1076.68 1295.64 1077.2 1293.81 1077.2 1289.45 1077.2 1287.28 1075 1287.28 1070.6 1287.28 1069.21 1287.45 1067.74 1287.81 1066.2L1291.49 1049.98 1286.24 1049.98 1286.71 1047.82C1287.94 1047.8 1288.87 1047.71 1289.51 1047.54 1290.15 1047.37 1290.68 1047.14 1291.1 1046.85 1291.53 1046.56 1291.92 1046.14 1292.28 1045.6 1292.63 1045.06 1292.97 1044.37 1293.31 1043.52 1293.64 1042.68 1294.14 1041.21 1294.81 1039.1Z" fill-rule="evenodd"/><text fill="#000000" fill-opacity="0" font-family="Arial,Arial_MSFontService,sans-serif" font-size="38.0938" x="1286.24" y="1072.43">ğ‘¡</text><path d="M1345.3 1038.32 1349.73 1038.32 1349.73 1056.32 1366.76 1056.32 1366.76 1060.48 1349.73 1060.48 1349.73 1078.48 1345.3 1078.48 1345.3 1060.48 1328.26 1060.48 1328.26 1056.32 1345.3 1056.32Z" fill-rule="evenodd"/><text fill="#000000" fill-opacity="0" font-family="Arial,Arial_MSFontService,sans-serif" font-size="40.1562" x="1328.26" y="1073.46">+</text><path d="M1408.99 1049.98C1407.93 1049.98 1406.88 1050.34 1405.85 1051.06 1404.82 1051.77 1403.69 1052.93 1402.46 1054.51 1401.23 1056.09 1400.27 1057.65 1399.58 1059.2 1398.89 1060.74 1398.35 1062.51 1397.96 1064.51L1397.71 1065.82C1397.5 1066.93 1397.37 1067.77 1397.32 1068.35 1397.26 1068.94 1397.24 1069.51 1397.24 1070.07 1397.24 1071.7 1397.59 1072.88 1398.28 1073.62 1398.98 1074.36 1400.19 1074.73 1401.89 1074.73 1402.96 1074.73 1403.94 1074.52 1404.83 1074.1 1405.73 1073.69 1406.58 1073.08 1407.38 1072.29 1408.18 1071.5 1408.9 1070.54 1409.55 1069.41 1410.2 1068.29 1410.77 1066.98 1411.28 1065.49 1411.8 1064 1412.18 1062.47 1412.44 1060.9 1412.7 1059.33 1412.83 1057.85 1412.83 1056.48 1412.83 1054.29 1412.52 1052.66 1411.91 1051.59 1411.3 1050.51 1410.32 1049.98 1408.99 1049.98ZM1395.83 1046.29C1397.12 1046.29 1398.15 1046.72 1398.91 1047.57 1399.67 1048.43 1400.05 1049.56 1400.05 1050.98 1400.05 1052.14 1399.81 1053.37 1399.33 1054.66L1399.71 1054.79C1403.56 1049.14 1407.39 1046.32 1411.21 1046.32 1413.48 1046.32 1415.24 1047.19 1416.5 1048.91 1417.76 1050.64 1418.39 1053.08 1418.39 1056.23 1418.39 1059.66 1417.7 1063.05 1416.32 1066.37 1414.93 1069.69 1413.01 1072.33 1410.55 1074.27 1408.09 1076.22 1405.34 1077.2 1402.3 1077.2 1399.53 1077.2 1397.23 1076.59 1395.39 1075.38L1393.96 1082.23C1393.64 1083.71 1393.49 1084.93 1393.49 1085.88 1393.49 1086.8 1393.72 1087.45 1394.19 1087.84 1394.66 1088.22 1395.57 1088.48 1396.93 1088.6L1396.68 1090.13 1387.02 1090.13 1394.55 1056.98C1394.99 1055.06 1395.21 1053.49 1395.21 1052.26 1395.21 1051.43 1395.07 1050.82 1394.8 1050.45 1394.53 1050.07 1394.1 1049.88 1393.52 1049.88 1392.87 1049.88 1392.19 1050.15 1391.47 1050.68 1390.75 1051.21 1389.77 1052.18 1388.52 1053.57L1386.74 1051.82C1388.61 1049.86 1390.2 1048.45 1391.5 1047.59 1392.81 1046.72 1394.25 1046.29 1395.83 1046.29Z" fill-rule="evenodd"/><text fill="#000000" fill-opacity="0" font-family="Arial,Arial_MSFontService,sans-serif" font-size="43.8438" x="1386.74" y="1084.65">ğ‘</text><text font-family="Arial,Arial_MSFontService,sans-serif" font-weight="400" font-size="64" transform="matrix(1 0 0 1 642.411 1187)">Latency </text><path d="M900.275 1142.02 902.119 1142.02 894.432 1176.61C893.973 1178.67 893.744 1180.21 893.744 1181.24 893.744 1182.07 893.88 1182.67 894.15 1183.05 894.421 1183.42 894.848 1183.61 895.432 1183.61 896.057 1183.61 896.723 1183.36 897.432 1182.84 898.14 1182.33 899.14 1181.36 900.432 1179.92L902.213 1181.67C900.192 1183.8 898.541 1185.25 897.26 1186.03 895.979 1186.81 894.546 1187.2 892.963 1187.2 891.609 1187.2 890.525 1186.71 889.713 1185.72 888.9 1184.73 888.494 1183.46 888.494 1181.92 888.494 1180.53 888.786 1178.51 889.369 1175.86L894.963 1150.83C895.213 1149.73 895.39 1148.84 895.494 1148.19 895.598 1147.53 895.65 1146.92 895.65 1146.36 895.65 1145.74 895.536 1145.26 895.307 1144.94 895.077 1144.62 894.749 1144.38 894.322 1144.24 893.895 1144.09 893.13 1143.99 892.025 1143.92L892.4 1142.3Z" fill-rule="evenodd"/><text fill="#000000" fill-opacity="0" font-family="Arial,Arial_MSFontService,sans-serif" font-size="45.1875" x="888.494" y="1181.56">ğ‘™</text><path d="M905.955 1176.84 912.587 1176.84 914.377 1195.48C915.356 1193.96 916.221 1192.59 916.971 1191.37 917.72 1190.14 918.378 1189.02 918.944 1187.99 919.51 1186.97 920 1186.02 920.413 1185.15 920.826 1184.28 921.174 1183.44 921.457 1182.65 921.74 1181.85 921.977 1181.07 922.169 1180.31 922.36 1179.54 922.524 1178.75 922.662 1177.94L922.937 1176.84 926.609 1176.84 928.606 1195.48C931.13 1192.03 933.039 1189.02 934.332 1186.44 935.624 1183.87 936.271 1181.81 936.271 1180.26 936.271 1179.59 936.11 1179.11 935.789 1178.84 935.468 1178.56 934.886 1178.39 934.045 1178.31L934.32 1176.84 940.792 1176.84 941.595 1178.17C940.952 1179.84 940.245 1181.48 939.472 1183.11 938.7 1184.73 937.793 1186.41 936.753 1188.17 935.712 1189.92 934.496 1191.77 933.104 1193.73 931.712 1195.69 930.075 1197.83 928.193 1200.16L925.255 1200.16 923.396 1184.23C922.387 1186.56 921.113 1189.03 919.575 1191.67 918.038 1194.3 916.229 1197.13 914.148 1200.16L910.797 1200.16 908.64 1182.83C908.518 1181.91 908.41 1181.17 908.319 1180.62 908.227 1180.06 908.085 1179.62 907.894 1179.31 907.703 1178.99 907.431 1178.77 907.079 1178.63 906.728 1178.49 906.238 1178.39 905.611 1178.31Z" fill-rule="evenodd"/><text fill="#000000" fill-opacity="0" font-family="Arial,Arial_MSFontService,sans-serif" font-size="23.3164" x="905.611" y="1197.24">ğ‘¤</text><path d="M968.955 1172.83 1007.45 1172.83 1007.45 1176.99 968.955 1176.99ZM968.955 1159.86 1007.45 1159.86 1007.45 1164.02 968.955 1164.02Z" fill-rule="evenodd"/><text fill="#000000" fill-opacity="0" font-family="Arial,Arial_MSFontService,sans-serif" font-size="17.125" x="968.955" y="1174.84">=</text><path d="M1047.85 1119.54 1049.25 1119.54C1049.22 1120.38 1049.2 1121.13 1049.18 1121.8 1049.17 1122.47 1049.16 1123.11 1049.15 1123.74 1049.14 1124.37 1049.14 1124.99 1049.14 1125.6L1049.14 1143.04C1049.14 1143.51 1049.15 1143.92 1049.18 1144.27 1049.21 1144.61 1049.26 1144.9 1049.33 1145.14 1049.4 1145.38 1049.49 1145.58 1049.61 1145.75 1049.72 1145.92 1049.86 1146.06 1050.01 1146.18 1050.19 1146.37 1050.44 1146.51 1050.74 1146.61 1051.05 1146.71 1051.44 1146.79 1051.91 1146.86 1052.39 1146.93 1052.96 1146.98 1053.62 1147.02 1054.29 1147.06 1055.09 1147.09 1056.02 1147.1L1056.02 1149.1 1037.82 1149.1 1037.82 1147.1C1038.73 1147.07 1039.49 1147.04 1040.12 1147 1040.74 1146.96 1041.28 1146.91 1041.72 1146.84 1042.17 1146.77 1042.52 1146.69 1042.79 1146.61 1043.06 1146.52 1043.29 1146.42 1043.49 1146.3 1043.71 1146.16 1043.89 1146.01 1044.04 1145.85 1044.19 1145.69 1044.32 1145.49 1044.41 1145.24 1044.5 1145 1044.57 1144.7 1044.63 1144.35 1044.68 1144 1044.71 1143.56 1044.71 1143.04L1044.71 1126.58C1044.71 1125.99 1044.59 1125.57 1044.36 1125.32 1044.13 1125.08 1043.8 1124.96 1043.38 1124.96 1042.9 1124.96 1042.2 1125.2 1041.27 1125.69 1040.33 1126.18 1039.12 1126.91 1037.64 1127.87 1037.44 1127.52 1037.26 1127.17 1037.09 1126.81 1036.92 1126.46 1036.74 1126.1 1036.56 1125.74 1038.46 1124.7 1040.34 1123.66 1042.19 1122.63 1044.05 1121.59 1045.94 1120.56 1047.85 1119.54Z" fill-rule="evenodd"/><text fill="#000000" fill-opacity="0" font-family="Arial,Arial_MSFontService,sans-serif" font-size="29.5586" x="1036.56" y="1145.4">1</text><path d="M1038.61 1195.54C1039.74 1195.54 1040.61 1195.91 1041.23 1196.65 1041.85 1197.4 1042.16 1198.37 1042.16 1199.58 1042.16 1199.89 1042.14 1200.21 1042.08 1200.54 1042.03 1200.88 1041.93 1201.2 1041.8 1201.51L1042.12 1201.62C1043.6 1199.59 1045.07 1198.06 1046.51 1197.05 1047.96 1196.04 1049.45 1195.54 1051 1195.54 1052.62 1195.54 1053.83 1195.98 1054.64 1196.85 1055.44 1197.72 1055.84 1198.94 1055.84 1200.52 1055.84 1200.99 1055.77 1201.65 1055.63 1202.49 1055.5 1203.33 1055.32 1204.25 1055.11 1205.25 1054.89 1206.24 1054.66 1207.26 1054.42 1208.31 1054.17 1209.36 1053.94 1210.33 1053.73 1211.21 1053.52 1212.1 1053.34 1212.86 1053.2 1213.49 1053.06 1214.11 1053 1214.5 1053 1214.66 1053 1215.24 1053.1 1215.66 1053.32 1215.92 1053.53 1216.18 1053.87 1216.31 1054.35 1216.31 1054.64 1216.31 1054.93 1216.26 1055.21 1216.15 1055.49 1216.04 1055.79 1215.87 1056.09 1215.64 1056.4 1215.41 1056.74 1215.12 1057.1 1214.76 1057.47 1214.4 1057.88 1213.97 1058.34 1213.46L1059.93 1214.98C1059.18 1215.74 1058.49 1216.4 1057.86 1216.95 1057.23 1217.5 1056.62 1217.96 1056.04 1218.32 1055.45 1218.68 1054.86 1218.94 1054.28 1219.12 1053.7 1219.3 1053.08 1219.38 1052.42 1219.38 1051.87 1219.38 1051.36 1219.28 1050.9 1219.06 1050.43 1218.85 1050.03 1218.55 1049.69 1218.18 1049.35 1217.8 1049.09 1217.36 1048.91 1216.85 1048.73 1216.34 1048.63 1215.77 1048.63 1215.16 1048.63 1214.55 1048.7 1213.83 1048.83 1213.02 1048.96 1212.2 1049.15 1211.3 1049.42 1210.32 1049.69 1209.32 1049.95 1208.37 1050.18 1207.46 1050.42 1206.55 1050.63 1205.71 1050.8 1204.94 1050.98 1204.17 1051.12 1203.48 1051.22 1202.87 1051.32 1202.27 1051.37 1201.77 1051.37 1201.37 1051.37 1200.42 1051.19 1199.72 1050.83 1199.28 1050.47 1198.84 1049.89 1198.62 1049.09 1198.62 1048.63 1198.62 1048.14 1198.73 1047.61 1198.97 1047.09 1199.21 1046.55 1199.54 1046.02 1199.96 1045.48 1200.38 1044.96 1200.88 1044.45 1201.45 1043.93 1202.02 1043.46 1202.64 1043.04 1203.29 1042.61 1203.94 1042.23 1204.62 1041.9 1205.33 1041.57 1206.04 1041.33 1206.75 1041.18 1207.45L1038.61 1218.97 1034.11 1218.97 1037.55 1204.01C1037.75 1203.21 1037.89 1202.5 1037.99 1201.87 1038.08 1201.25 1038.12 1200.73 1038.12 1200.34 1038.12 1199.22 1037.67 1198.66 1036.77 1198.66 1036.49 1198.66 1036.22 1198.72 1035.93 1198.83 1035.65 1198.95 1035.35 1199.12 1035.04 1199.35 1034.72 1199.58 1034.38 1199.87 1034.02 1200.22 1033.65 1200.57 1033.24 1200.99 1032.78 1201.46L1031.19 1199.97C1031.96 1199.19 1032.66 1198.52 1033.29 1197.96 1033.93 1197.4 1034.53 1196.94 1035.11 1196.58 1035.68 1196.22 1036.25 1195.96 1036.82 1195.79 1037.38 1195.62 1037.98 1195.54 1038.61 1195.54Z" fill-rule="evenodd"/><text fill="#000000" fill-opacity="0" font-family="Arial,Arial_MSFontService,sans-serif" font-size="23.8442" x="1031.19" y="1216.4">ğ‘›</text><path d="M1030.41 1166.7 1061.41 1166.7 1061.41 1170.7 1030.41 1170.7Z" fill-rule="evenodd"/><path d="M1081.93 1156.3C1083.25 1156.3 1084.28 1156.73 1085.04 1157.59 1085.8 1158.46 1086.18 1159.59 1086.18 1160.99 1086.18 1162.03 1085.99 1163.1 1085.59 1164.2L1086 1164.36C1088.04 1161.59 1090 1159.56 1091.89 1158.27 1093.77 1156.98 1095.68 1156.33 1097.62 1156.33 1099.14 1156.33 1100.41 1156.44 1101.43 1156.67L1099.93 1163.67 1096.71 1163.67C1096.59 1162.8 1096.41 1162.12 1096.18 1161.64 1095.95 1161.16 1095.68 1160.83 1095.37 1160.64 1095.06 1160.45 1094.66 1160.36 1094.18 1160.36 1093.43 1160.36 1092.62 1160.68 1091.73 1161.33 1090.85 1161.98 1089.85 1162.99 1088.75 1164.36 1087.64 1165.74 1086.76 1167.06 1086.11 1168.33 1085.45 1169.6 1084.9 1171.21 1084.46 1173.17L1081.5 1186.7 1076.09 1186.7 1080.62 1166.89C1080.91 1165.64 1081.1 1164.67 1081.18 1163.99 1081.27 1163.3 1081.31 1162.73 1081.31 1162.27 1081.31 1161.43 1081.17 1160.83 1080.9 1160.45 1080.63 1160.08 1080.2 1159.89 1079.62 1159.89 1078.98 1159.89 1078.29 1160.16 1077.57 1160.69 1076.86 1161.22 1075.87 1162.18 1074.62 1163.58L1072.84 1161.83C1074.76 1159.83 1076.36 1158.41 1077.65 1157.56 1078.94 1156.72 1080.37 1156.3 1081.93 1156.3Z" fill-rule="evenodd"/><text fill="#000000" fill-opacity="0" font-family="Arial,Arial_MSFontService,sans-serif" font-size="30.4062" x="1072.84" y="1182.9">ğ‘Ÿ</text><path d="M1139.85 1148.33 1144.29 1148.33 1144.29 1166.33 1161.32 1166.33 1161.32 1170.49 1144.29 1170.49 1144.29 1188.49 1139.85 1188.49 1139.85 1170.49 1122.82 1170.49 1122.82 1166.33 1139.85 1166.33Z" fill-rule="evenodd"/><text fill="#000000" fill-opacity="0" font-family="Arial,Arial_MSFontService,sans-serif" font-size="40.1562" x="1122.82" y="1183.47">+</text><path d="M1192.76 1149.11 1197.07 1149.11 1195.35 1156.83 1204.85 1156.83 1204.16 1159.99 1194.66 1159.99 1191.88 1172.11C1191.34 1174.46 1191 1176.16 1190.85 1177.19 1190.71 1178.22 1190.63 1179.05 1190.63 1179.67 1190.63 1182.26 1191.71 1183.55 1193.85 1183.55 1194.77 1183.55 1195.74 1183.2 1196.77 1182.5 1197.81 1181.8 1199.03 1180.61 1200.45 1178.92L1202.26 1180.8C1200.45 1182.99 1198.7 1184.6 1197.02 1185.64 1195.35 1186.68 1193.59 1187.2 1191.76 1187.2 1187.4 1187.2 1185.23 1185.01 1185.23 1180.61 1185.23 1179.21 1185.4 1177.75 1185.76 1176.2L1189.45 1159.99 1184.2 1159.99 1184.66 1157.83C1185.89 1157.81 1186.83 1157.71 1187.46 1157.55 1188.1 1157.38 1188.63 1157.15 1189.06 1156.86 1189.48 1156.57 1189.87 1156.15 1190.23 1155.61 1190.58 1155.07 1190.93 1154.38 1191.26 1153.53 1191.59 1152.69 1192.09 1151.21 1192.76 1149.11Z" fill-rule="evenodd"/><text fill="#000000" fill-opacity="0" font-family="Arial,Arial_MSFontService,sans-serif" font-size="38.0938" x="1184.2" y="1182.44">ğ‘¡</text><path d="M1243.25 1148.33 1247.69 1148.33 1247.69 1166.33 1264.72 1166.33 1264.72 1170.49 1247.69 1170.49 1247.69 1188.49 1243.25 1188.49 1243.25 1170.49 1226.22 1170.49 1226.22 1166.33 1243.25 1166.33Z" fill-rule="evenodd"/><text fill="#000000" fill-opacity="0" font-family="Arial,Arial_MSFontService,sans-serif" font-size="40.1562" x="1226.22" y="1183.47">+</text><path d="M1306.94 1159.99C1305.88 1159.99 1304.83 1160.34 1303.8 1161.06 1302.77 1161.78 1301.64 1162.93 1300.41 1164.52 1299.18 1166.1 1298.22 1167.66 1297.53 1169.2 1296.85 1170.75 1296.3 1172.52 1295.91 1174.52L1295.66 1175.83C1295.45 1176.93 1295.32 1177.78 1295.27 1178.36 1295.22 1178.94 1295.19 1179.52 1295.19 1180.08 1295.19 1181.7 1295.54 1182.89 1296.24 1183.63 1296.93 1184.37 1298.14 1184.74 1299.85 1184.74 1300.91 1184.74 1301.89 1184.53 1302.78 1184.11 1303.68 1183.69 1304.53 1183.09 1305.33 1182.3 1306.13 1181.51 1306.86 1180.55 1307.5 1179.42 1308.15 1178.3 1308.73 1176.99 1309.24 1175.5 1309.75 1174.01 1310.13 1172.48 1310.39 1170.91 1310.65 1169.33 1310.78 1167.86 1310.78 1166.49 1310.78 1164.3 1310.48 1162.67 1309.86 1161.59 1309.25 1160.52 1308.27 1159.99 1306.94 1159.99ZM1293.78 1156.3C1295.08 1156.3 1296.1 1156.73 1296.86 1157.58 1297.62 1158.43 1298 1159.57 1298 1160.99 1298 1162.15 1297.76 1163.38 1297.28 1164.67L1297.66 1164.8C1301.51 1159.15 1305.35 1156.33 1309.16 1156.33 1311.43 1156.33 1313.2 1157.19 1314.46 1158.92 1315.72 1160.65 1316.35 1163.09 1316.35 1166.24 1316.35 1169.67 1315.65 1173.05 1314.27 1176.38 1312.88 1179.7 1310.96 1182.33 1308.5 1184.28 1306.04 1186.23 1303.29 1187.2 1300.25 1187.2 1297.48 1187.2 1295.18 1186.6 1293.35 1185.39L1291.91 1192.24C1291.6 1193.71 1291.44 1194.93 1291.44 1195.89 1291.44 1196.81 1291.67 1197.46 1292.14 1197.84 1292.61 1198.23 1293.52 1198.49 1294.88 1198.61L1294.63 1200.14 1284.97 1200.14 1292.5 1166.99C1292.94 1165.07 1293.16 1163.5 1293.16 1162.27 1293.16 1161.43 1293.02 1160.83 1292.75 1160.45 1292.48 1160.08 1292.05 1159.89 1291.47 1159.89 1290.83 1159.89 1290.14 1160.16 1289.42 1160.69 1288.71 1161.22 1287.72 1162.18 1286.47 1163.58L1284.69 1161.83C1286.56 1159.87 1288.15 1158.46 1289.46 1157.59 1290.76 1156.73 1292.2 1156.3 1293.78 1156.3Z" fill-rule="evenodd"/><text fill="#000000" fill-opacity="0" font-family="Arial,Arial_MSFontService,sans-serif" font-size="43.8438" x="1284.69" y="1194.66">ğ‘</text><path d="M2122.5 873.5C2122.5 904.153 2118.36 929.001 2113.25 929.001L1101.25 929.001C1096.14 929.001 1092 953.85 1092 984.502 1092 953.85 1087.86 929.001 1082.75 929.001L70.75 929.001C65.6414 929.001 61.5 904.153 61.5 873.5" stroke="#000000" stroke-width="6.875" stroke-miterlimit="8" fill="none" fill-rule="evenodd"/></g></svg>